<?xml version="1.0" encoding="us-ascii" standalone="no"?><svg xmlns="http://www.w3.org/2000/svg" xmlns:xlink="http://www.w3.org/1999/xlink" contentStyleType="text/css" height="2170px" preserveAspectRatio="none" style="width:1042px;height:2170px;background:#FFFFFF;" version="1.1" viewBox="0 0 1042 2170" width="1042px" zoomAndPan="magnify"><defs/><g><text fill="#000000" font-family="sans-serif" font-size="14" font-weight="bold" lengthAdjust="spacing" textLength="501" x="263.5" y="24.5332">Diagrama de Casos de Uso - Sistema de Gerenciamento de Restaurante</text><!--cluster Gest?o de Pessoal--><g id="cluster_Gest&#227;o de Pessoal"><rect fill="none" height="280" rx="2.5" ry="2.5" style="stroke:#181818;stroke-width:1.0;" width="588" x="444" y="934.6094"/><text fill="#000000" font-family="sans-serif" font-size="14" font-weight="bold" lengthAdjust="spacing" textLength="131" x="672.5" y="951.1426">Gest&#227;o de Pessoal</text></g><!--cluster Card?pio e Estoque--><g id="cluster_Card&#225;pio e Estoque"><rect fill="none" height="254" rx="2.5" ry="2.5" style="stroke:#181818;stroke-width:1.0;" width="562" x="474" y="450.6094"/><text fill="#000000" font-family="sans-serif" font-size="14" font-weight="bold" lengthAdjust="spacing" textLength="138" x="686" y="467.1426">Card&#225;pio e Estoque</text></g><!--cluster Pedidos--><g id="cluster_Pedidos"><rect fill="none" height="169" rx="2.5" ry="2.5" style="stroke:#181818;stroke-width:1.0;" width="612.5" x="120" y="1356.6094"/><text fill="#000000" font-family="sans-serif" font-size="14" font-weight="bold" lengthAdjust="spacing" textLength="57" x="397.75" y="1373.1426">Pedidos</text></g><!--cluster Mesas, Reservas e Eventos--><g id="cluster_Mesas, Reservas e Eventos"><rect fill="none" height="248" rx="2.5" ry="2.5" style="stroke:#181818;stroke-width:1.0;" width="555" x="476.5" y="1625.6094"/><text fill="#000000" font-family="sans-serif" font-size="14" font-weight="bold" lengthAdjust="spacing" textLength="196" x="656" y="1642.1426">Mesas, Reservas e Eventos</text></g><g id="elem_UC1"><ellipse cx="599.2514" cy="992.4596" fill="#FDFDFD" rx="94.7514" ry="21.3503" style="stroke:#444444;stroke-width:0.5;"/><text fill="#000000" font-family="sans-serif" font-size="14" lengthAdjust="spacing" textLength="149" x="524.7514" y="996.1882">Gerenciar Funcion&#225;rios</text></g><g id="elem_UC2"><ellipse cx="599.5545" cy="1075.6203" fill="#FDFDFD" rx="120.5545" ry="26.5109" style="stroke:#444444;stroke-width:0.5;"/><text fill="#000000" font-family="sans-serif" font-size="14" lengthAdjust="spacing" textLength="206" x="496.5545" y="1079.3488">Definir Hierarquias e Permiss&#245;es</text></g><g id="elem_UC3"><ellipse cx="937.896" cy="1129.5886" fill="#FDFDFD" rx="77.896" ry="17.9792" style="stroke:#444444;stroke-width:0.5;"/><text fill="#000000" font-family="sans-serif" font-size="14" lengthAdjust="spacing" textLength="109" x="881.4355" y="1133.856">Controlar Acesso</text></g><g id="elem_UC4"><ellipse cx="599.305" cy="1167.3704" fill="#FDFDFD" rx="139.305" ry="30.261" style="stroke:#444444;stroke-width:0.5;"/><text fill="#000000" font-family="sans-serif" font-size="14" lengthAdjust="spacing" textLength="246" x="476.305" y="1171.0989">Registrar Escala de Trabalho e Turnos</text></g><g id="elem_UC5"><ellipse cx="599.4267" cy="506.3947" fill="#FDFDFD" rx="84.4267" ry="19.2853" style="stroke:#444444;stroke-width:0.5;"/><text fill="#000000" font-family="sans-serif" font-size="14" lengthAdjust="spacing" textLength="125" x="536.9267" y="510.1232">Gerenciar Card&#225;pio</text></g><g id="elem_UC6"><ellipse cx="937.9202" cy="505.3934" fill="#FDFDFD" rx="81.9202" ry="18.784" style="stroke:#444444;stroke-width:0.5;"/><text fill="#000000" font-family="sans-serif" font-size="14" lengthAdjust="spacing" textLength="119" x="878.2512" y="509.1722">Gerenciar Estoque</text></g><g id="elem_UC7"><ellipse cx="599.63" cy="582.6354" fill="#FDFDFD" rx="95.63" ry="21.526" style="stroke:#444444;stroke-width:0.5;"/><text fill="#000000" font-family="sans-serif" font-size="14" lengthAdjust="spacing" textLength="151" x="524.13" y="586.3639">Notificar Estoque Cr&#237;tico</text></g><g id="elem_UC8"><ellipse cx="599.5226" cy="663.4139" fill="#FDFDFD" rx="109.5226" ry="24.3045" style="stroke:#444444;stroke-width:0.5;"/><text fill="#000000" font-family="sans-serif" font-size="14" lengthAdjust="spacing" textLength="182" x="508.5226" y="667.1424">Gerar Relat&#243;rio de Consumo</text></g><g id="elem_UC9"><ellipse cx="238.7363" cy="1491.8566" fill="#FDFDFD" rx="76.7363" ry="17.7473" style="stroke:#444444;stroke-width:0.5;"/><text fill="#000000" font-family="sans-serif" font-size="14" lengthAdjust="spacing" textLength="106" x="183.2006" y="1496.2648">Registrar Pedido</text></g><g id="elem_UC10"><ellipse cx="238.2928" cy="1415.4679" fill="#FDFDFD" rx="102.2928" ry="22.8586" style="stroke:#444444;stroke-width:0.5;"/><text fill="#000000" font-family="sans-serif" font-size="14" lengthAdjust="spacing" textLength="166" x="155.2928" y="1419.1965">Atualizar Status do Pedido</text></g><g id="elem_UC11"><ellipse cx="599.3554" cy="1445.3805" fill="#FDFDFD" rx="116.8554" ry="25.7711" style="stroke:#444444;stroke-width:0.5;"/><text fill="#000000" font-family="sans-serif" font-size="14" lengthAdjust="spacing" textLength="198" x="500.3554" y="1449.109">Imprimir Pedido na Cozinha/Bar</text></g><g id="elem_UC12"><ellipse cx="938.0069" cy="1680.5108" fill="#FDFDFD" rx="77.5069" ry="17.9014" style="stroke:#444444;stroke-width:0.5;"/><text fill="#000000" font-family="sans-serif" font-size="14" lengthAdjust="spacing" textLength="108" x="881.8567" y="1684.8254">Gerenciar Mesas</text></g><g id="elem_UC13"><ellipse cx="599.2982" cy="1758.369" fill="#FDFDFD" rx="106.7982" ry="23.7596" style="stroke:#444444;stroke-width:0.5;"/><text fill="#000000" font-family="sans-serif" font-size="14" lengthAdjust="spacing" textLength="176" x="511.2982" y="1762.0975">Visualizar Status das Mesas</text></g><g id="elem_UC14"><ellipse cx="599.2698" cy="1837.5633" fill="#FDFDFD" rx="85.2698" ry="19.454" style="stroke:#444444;stroke-width:0.5;"/><text fill="#000000" font-family="sans-serif" font-size="14" lengthAdjust="spacing" textLength="127" x="535.7698" y="1841.2918">Gerenciar Reservas</text></g><g id="elem_UC15"><ellipse cx="599.5075" cy="1680.8109" fill="#FDFDFD" rx="81.5075" ry="18.7015" style="stroke:#444444;stroke-width:0.5;"/><text fill="#000000" font-family="sans-serif" font-size="14" lengthAdjust="spacing" textLength="118" x="540.1675" y="1684.6398">Gerenciar Eventos</text></g><!--entity Gerente--><g id="elem_Gerente"><ellipse cx="238.5" cy="1011.6094" fill="#FF5733" rx="16" ry="16" style="stroke:#181818;stroke-width:0.5;"/><path d="M238.5,1031.6094 C242.5,1031.6094 245.5,1031.6094 249.5,1027.6094 C257.5,1027.6094 265.5,1035.6094 265.5,1043.6094 L265.5,1047.6094 C265.5,1051.6094 261.5,1055.6094 257.5,1055.6094 L219.5,1055.6094 C215.5,1055.6094 211.5,1051.6094 211.5,1047.6094 L211.5,1043.6094 C211.5,1035.6094 219.5,1027.6094 227.5,1027.6094 C231.5,1031.6094 234.5,1031.6094 238.5,1031.6094 " fill="#FF5733" style="stroke:#181818;stroke-width:0.5;"/><text fill="#000000" font-family="sans-serif" font-size="14" lengthAdjust="spacing" textLength="52" x="212.5" y="1070.6426">Gerente</text></g><!--entity Chef--><g id="elem_Chef"><ellipse cx="238.5" cy="575.6094" fill="#33FF57" rx="16" ry="16" style="stroke:#181818;stroke-width:0.5;"/><path d="M238.5,595.6094 C242.5,595.6094 245.5,595.6094 249.5,591.6094 C257.5,591.6094 265.5,599.6094 265.5,607.6094 L265.5,611.6094 C265.5,615.6094 261.5,619.6094 257.5,619.6094 L219.5,619.6094 C215.5,619.6094 211.5,615.6094 211.5,611.6094 L211.5,607.6094 C211.5,599.6094 219.5,591.6094 227.5,591.6094 C231.5,595.6094 234.5,595.6094 238.5,595.6094 " fill="#33FF57" style="stroke:#181818;stroke-width:0.5;"/><text fill="#000000" font-family="sans-serif" font-size="14" lengthAdjust="spacing" textLength="105" x="186" y="634.6426">Chef de Cozinha</text></g><!--entity Subchef--><g id="elem_Subchef"><ellipse cx="39.5" cy="257.6094" fill="#3357FF" rx="16" ry="16" style="stroke:#181818;stroke-width:0.5;"/><path d="M39.5,277.6094 C43.5,277.6094 46.5,277.6094 50.5,273.6094 C58.5,273.6094 66.5,281.6094 66.5,289.6094 L66.5,293.6094 C66.5,297.6094 62.5,301.6094 58.5,301.6094 L20.5,301.6094 C16.5,301.6094 12.5,297.6094 12.5,293.6094 L12.5,289.6094 C12.5,281.6094 20.5,273.6094 28.5,273.6094 C32.5,277.6094 35.5,277.6094 39.5,277.6094 " fill="#3357FF" style="stroke:#181818;stroke-width:0.5;"/><text fill="#000000" font-family="sans-serif" font-size="14" lengthAdjust="spacing" textLength="52" x="13.5" y="316.6426">Subchef</text></g><!--entity Cozinheiro--><g id="elem_Cozinheiro"><ellipse cx="39.5" cy="450.6094" fill="#FF33F5" rx="16" ry="16" style="stroke:#181818;stroke-width:0.5;"/><path d="M39.5,470.6094 C43.5,470.6094 46.5,470.6094 50.5,466.6094 C58.5,466.6094 66.5,474.6094 66.5,482.6094 L66.5,486.6094 C66.5,490.6094 62.5,494.6094 58.5,494.6094 L20.5,494.6094 C16.5,494.6094 12.5,490.6094 12.5,486.6094 L12.5,482.6094 C12.5,474.6094 20.5,466.6094 28.5,466.6094 C32.5,470.6094 35.5,470.6094 39.5,470.6094 " fill="#FF33F5" style="stroke:#181818;stroke-width:0.5;"/><text fill="#000000" font-family="sans-serif" font-size="14" lengthAdjust="spacing" textLength="67" x="6" y="509.6426">Cozinheiro</text></g><!--entity AuxCozinha--><g id="elem_AuxCozinha"><ellipse cx="599.5" cy="60.6094" fill="#33FFF5" rx="16" ry="16" style="stroke:#181818;stroke-width:0.5;"/><path d="M599.5,80.6094 C603.5,80.6094 606.5,80.6094 610.5,76.6094 C618.5,76.6094 626.5,84.6094 626.5,92.6094 L626.5,96.6094 C626.5,100.6094 622.5,104.6094 618.5,104.6094 L580.5,104.6094 C576.5,104.6094 572.5,100.6094 572.5,96.6094 L572.5,92.6094 C572.5,84.6094 580.5,76.6094 588.5,76.6094 C592.5,80.6094 595.5,80.6094 599.5,80.6094 " fill="#33FFF5" style="stroke:#181818;stroke-width:0.5;"/><text fill="#000000" font-family="sans-serif" font-size="14" lengthAdjust="spacing" textLength="120" x="539.5" y="119.6426">Auxiliar de Cozinha</text></g><!--entity Gar?om--><g id="elem_Gar&#231;om"><ellipse cx="39.5" cy="1600.6094" fill="#F5FF33" rx="16" ry="16" style="stroke:#181818;stroke-width:0.5;"/><path d="M39.5,1620.6094 C43.5,1620.6094 46.5,1620.6094 50.5,1616.6094 C58.5,1616.6094 66.5,1624.6094 66.5,1632.6094 L66.5,1636.6094 C66.5,1640.6094 62.5,1644.6094 58.5,1644.6094 L20.5,1644.6094 C16.5,1644.6094 12.5,1640.6094 12.5,1636.6094 L12.5,1632.6094 C12.5,1624.6094 20.5,1616.6094 28.5,1616.6094 C32.5,1620.6094 35.5,1620.6094 39.5,1620.6094 " fill="#F5FF33" style="stroke:#181818;stroke-width:0.5;"/><text fill="#000000" font-family="sans-serif" font-size="14" lengthAdjust="spacing" textLength="50" x="14.5" y="1659.6426">Garcom</text></g><!--entity Barman--><g id="elem_Barman"><ellipse cx="39.5" cy="1310.6094" fill="#FF8C33" rx="16" ry="16" style="stroke:#181818;stroke-width:0.5;"/><path d="M39.5,1330.6094 C43.5,1330.6094 46.5,1330.6094 50.5,1326.6094 C58.5,1326.6094 66.5,1334.6094 66.5,1342.6094 L66.5,1346.6094 C66.5,1350.6094 62.5,1354.6094 58.5,1354.6094 L20.5,1354.6094 C16.5,1354.6094 12.5,1350.6094 12.5,1346.6094 L12.5,1342.6094 C12.5,1334.6094 20.5,1326.6094 28.5,1326.6094 C32.5,1330.6094 35.5,1330.6094 39.5,1330.6094 " fill="#FF8C33" style="stroke:#181818;stroke-width:0.5;"/><text fill="#000000" font-family="sans-serif" font-size="14" lengthAdjust="spacing" textLength="49" x="15" y="1369.6426">Barman</text></g><!--entity Recepcionista--><g id="elem_Recepcionista"><ellipse cx="238.5" cy="1779.6094" fill="#8C33FF" rx="16" ry="16" style="stroke:#181818;stroke-width:0.5;"/><path d="M238.5,1799.6094 C242.5,1799.6094 245.5,1799.6094 249.5,1795.6094 C257.5,1795.6094 265.5,1803.6094 265.5,1811.6094 L265.5,1815.6094 C265.5,1819.6094 261.5,1823.6094 257.5,1823.6094 L219.5,1823.6094 C215.5,1823.6094 211.5,1819.6094 211.5,1815.6094 L211.5,1811.6094 C211.5,1803.6094 219.5,1795.6094 227.5,1795.6094 C231.5,1799.6094 234.5,1799.6094 238.5,1799.6094 " fill="#8C33FF" style="stroke:#181818;stroke-width:0.5;"/><text fill="#000000" font-family="sans-serif" font-size="14" lengthAdjust="spacing" textLength="89" x="194" y="1838.6426">Recepcionista</text></g><!--entity AuxLimpeza--><g id="elem_AuxLimpeza"><ellipse cx="599.5" cy="246.6094" fill="#33FF8C" rx="16" ry="16" style="stroke:#181818;stroke-width:0.5;"/><path d="M599.5,266.6094 C603.5,266.6094 606.5,266.6094 610.5,262.6094 C618.5,262.6094 626.5,270.6094 626.5,278.6094 L626.5,282.6094 C626.5,286.6094 622.5,290.6094 618.5,290.6094 L580.5,290.6094 C576.5,290.6094 572.5,286.6094 572.5,282.6094 L572.5,278.6094 C572.5,270.6094 580.5,262.6094 588.5,262.6094 C592.5,266.6094 595.5,266.6094 599.5,266.6094 " fill="#33FF8C" style="stroke:#181818;stroke-width:0.5;"/><text fill="#000000" font-family="sans-serif" font-size="14" lengthAdjust="spacing" textLength="121" x="539" y="305.6426">Auxiliar de Limpeza</text></g><!--link Gerente to UC1--><g id="link_Gerente_UC1"><path d="M266.19,1031.4894 C318.03,1025.4194 428.3106,1012.5165 508.5806,1003.1265 " fill="none" id="Gerente-to-UC1" style="stroke:#FF5733;stroke-width:1.0;"/><polygon fill="#FF5733" points="514.54,1002.4294,505.1362,999.5022,509.5739,1003.0103,506.0657,1007.448,514.54,1002.4294" style="stroke:#FF5733;stroke-width:1.0;"/></g><!--link Gerente to UC2--><g id="link_Gerente_UC2"><path d="M266.19,1037.6594 C313.4,1043.0494 408.0487,1053.8588 486.2687,1062.7888 " fill="none" id="Gerente-to-UC2" style="stroke:#FF5733;stroke-width:1.0;"/><polygon fill="#FF5733" points="492.23,1063.4694,483.7418,1058.4743,487.2623,1062.9022,482.8344,1066.4227,492.23,1063.4694" style="stroke:#FF5733;stroke-width:1.0;"/></g><!--link Gerente to UC3--><g id="link_Gerente_UC3"><path d="M266.26,1072.4594 C300,1116.5294 362.55,1186.9294 436,1215.6094 C562.07,1264.8194 608.04,1243.3294 740.5,1215.6094 C803.92,1202.3394 866.6929,1170.3429 903.7329,1149.3029 " fill="none" id="Gerente-to-UC3" style="stroke:#FF5733;stroke-width:1.0;"/><polygon fill="#FF5733" points="908.95,1146.3394,899.1487,1147.3065,904.6024,1148.8089,903.1,1154.2626,908.95,1146.3394" style="stroke:#FF5733;stroke-width:1.0;"/></g><!--link Gerente to UC4--><g id="link_Gerente_UC4"><path d="M266.1,1047.3394 C303.49,1064.9594 373.97,1097.1294 436,1119.6094 C460.06,1128.3294 480.7842,1134.9751 505.2442,1142.1751 " fill="none" id="Gerente-to-UC4" style="stroke:#FF5733;stroke-width:1.0;"/><polygon fill="#FF5733" points="511,1143.8694,503.4958,1137.4908,506.2035,1142.4575,501.2368,1145.1652,511,1143.8694" style="stroke:#FF5733;stroke-width:1.0;"/></g><!--link Gerente to UC5--><g id="link_Gerente_UC5"><path d="M256.48,994.9494 C290.56,914.8194 369.11,727.6094 428,567.6094 C431.88,557.0594 427.67,551.1594 436,543.6094 C457.65,523.9794 481.5946,515.0834 509.8146,510.2934 " fill="none" id="Gerente-to-UC5" style="stroke:#FF5733;stroke-width:1.0;"/><polygon fill="#FF5733" points="515.73,509.2894,506.1875,506.8519,510.8005,510.1261,507.5263,514.7391,515.73,509.2894" style="stroke:#FF5733;stroke-width:1.0;"/></g><!--link Gerente to UC6--><g id="link_Gerente_UC6"><path d="M266.22,1020.2594 C307.08,996.9594 384.87,947.0694 428,883.6094 C434.8,873.6094 427.15,865.8494 436,857.6094 C566.21,736.4094 689.76,881.9894 826,767.6094 C903.56,702.4894 927.2641,579.5936 933.9541,530.8536 " fill="none" id="Gerente-to-UC6" style="stroke:#FF5733;stroke-width:1.0;"/><polygon fill="#FF5733" points="934.77,524.9094,929.5833,533.2818,934.0901,529.8629,937.509,534.3697,934.77,524.9094" style="stroke:#FF5733;stroke-width:1.0;"/></g><!--link Gerente to UC7--><g id="link_Gerente_UC7"><path d="M262.06,995.0994 C286.06,954.9594 326.63,892.2294 371,845.6094 C393.06,822.4294 413.25,830.0094 428,801.6094 C437.23,783.8394 423.26,637.0494 436,621.6094 C452.89,601.1294 472.5986,591.5449 498.4986,586.0949 " fill="none" id="Gerente-to-UC7" style="stroke:#FF5733;stroke-width:1.0;"/><polygon fill="#FF5733" points="504.37,584.8594,494.7392,582.7983,499.4772,585.889,496.3865,590.6269,504.37,584.8594" style="stroke:#FF5733;stroke-width:1.0;"/></g><!--link Gerente to UC8--><g id="link_Gerente_UC8"><path d="M266.08,1001.2494 C291.54,970.1494 331.8,923.1894 371,886.6094 C394.4,864.7694 411.89,870.2594 428,842.6094 C440.66,820.8894 423.24,808.2694 436,786.6094 C462.94,740.8794 508.8343,709.3856 546.5843,688.7656 " fill="none" id="Gerente-to-UC8" style="stroke:#FF5733;stroke-width:1.0;"/><polygon fill="#FF5733" points="551.85,685.8894,542.034,686.6933,547.4619,688.2862,545.869,693.7142,551.85,685.8894" style="stroke:#FF5733;stroke-width:1.0;"/></g><!--link Gerente to UC12--><g id="link_Gerente_UC12"><path d="M260.21,1074.1394 C283.02,1114.6994 322.9,1177.6394 371,1219.6094 C505.45,1336.9094 602.93,1262.9694 740.5,1376.6094 C842,1460.4594 906.7176,1605.0982 927.6976,1656.8982 " fill="none" id="Gerente-to-UC12" style="stroke:#FF5733;stroke-width:1.0;"/><polygon fill="#FF5733" points="929.95,1662.4594,930.2789,1652.616,928.073,1657.8251,922.864,1655.6192,929.95,1662.4594" style="stroke:#FF5733;stroke-width:1.0;"/></g><!--link Gerente to UC15--><g id="link_Gerente_UC15"><path d="M252.55,1074.2994 C273.1,1137.7194 313.51,1266.0094 341,1376.6094 C357.29,1442.1594 346.69,1462.5794 371,1525.6094 C391.3,1578.2294 391.25,1600.2694 436,1634.6094 C461.94,1654.5094 490.2398,1664.5579 520.5498,1670.9679 " fill="none" id="Gerente-to-UC15" style="stroke:#FF5733;stroke-width:1.0;"/><polygon fill="#FF5733" points="526.42,1672.2094,518.4424,1666.4338,521.5282,1671.1748,516.7871,1674.2607,526.42,1672.2094" style="stroke:#FF5733;stroke-width:1.0;"/></g><!--link Chef to UC1--><g id="link_Chef_UC1"><path d="M291.45,614.5594 C341.48,631.0794 411.88,657.7594 428,681.6094 C443.25,704.1694 420.42,904.2694 436,926.6094 C455.68,954.8294 483.8893,969.3219 515.6893,978.5819 " fill="none" id="Chef-to-UC1" style="stroke:#33FF57;stroke-width:1.0;"/><polygon fill="#33FF57" points="521.45,980.2594,513.9272,973.9026,516.6494,978.8615,511.6906,981.5836,521.45,980.2594" style="stroke:#33FF57;stroke-width:1.0;"/></g><!--link Chef to UC4--><g id="link_Chef_UC4"><path d="M257.62,638.1094 C294.31,719.3994 378.12,911.9394 428,1080.6094 C433.02,1097.5794 424.03,1106.5794 436,1119.6094 C448.84,1133.5794 459.9489,1141.3316 477.7289,1148.4416 " fill="none" id="Chef-to-UC4" style="stroke:#33FF57;stroke-width:1.0;"/><polygon fill="#33FF57" points="483.3,1150.6694,476.4286,1143.6136,478.6574,1148.8129,473.4582,1151.0417,483.3,1150.6694" style="stroke:#33FF57;stroke-width:1.0;"/></g><!--link Chef to UC5--><g id="link_Chef_UC5"><path d="M291.03,583.4394 C330.56,571.9794 386.55,556.1494 436,543.6094 C469.23,535.1794 500.6625,527.9293 531.1225,521.1693 " fill="none" id="Chef-to-UC5" style="stroke:#33FF57;stroke-width:1.0;"/><polygon fill="#33FF57" points="536.98,519.8694,527.3271,517.9143,532.0988,520.9527,529.0604,525.7243,536.98,519.8694" style="stroke:#33FF57;stroke-width:1.0;"/></g><!--link Chef to UC6--><g id="link_Chef_UC6"><path d="M283.26,558.9694 C320.73,527.8694 377.74,487.0194 436,469.6094 C595.58,421.9094 790.1353,463.8266 881.5853,489.0066 " fill="none" id="Chef-to-UC6" style="stroke:#33FF57;stroke-width:1.0;"/><polygon fill="#33FF57" points="887.37,490.5994,879.7548,484.3537,882.5494,489.2721,877.6311,492.0667,887.37,490.5994" style="stroke:#33FF57;stroke-width:1.0;"/></g><!--link Chef to UC7--><g id="link_Chef_UC7"><path d="M291.32,596.2994 C347.24,593.8094 431.4459,590.0564 499.6759,587.0164 " fill="none" id="Chef-to-UC7" style="stroke:#33FF57;stroke-width:1.0;"/><polygon fill="#33FF57" points="505.67,586.7494,496.5009,583.1539,500.675,586.9719,496.857,591.146,505.67,586.7494" style="stroke:#33FF57;stroke-width:1.0;"/></g><!--link Chef to UC8--><g id="link_Chef_UC8"><path d="M291.32,607.9894 C349.47,618.5194 438.796,634.6903 507.826,647.1903 " fill="none" id="Chef-to-UC8" style="stroke:#33FF57;stroke-width:1.0;"/><polygon fill="#33FF57" points="513.73,648.2594,505.5868,642.7197,508.81,647.3685,504.1613,650.5917,513.73,648.2594" style="stroke:#33FF57;stroke-width:1.0;"/></g><!--link Subchef to UC5--><g id="link_Subchef_UC5"><path d="M67.04,291.3594 C156.49,327.5894 441.8789,443.1668 551.0489,487.3868 " fill="none" id="Subchef-to-UC5" style="stroke:#3357FF;stroke-width:1.0;"/><polygon fill="#3357FF" points="556.61,489.6394,549.77,482.5531,551.9757,487.7622,546.7666,489.9679,556.61,489.6394" style="stroke:#3357FF;stroke-width:1.0;"/></g><!--link Subchef to UC6--><g id="link_Subchef_UC6"><path d="M67.19,269.4194 C162.72,231.1294 494.97,113.0294 740.5,212.6094 C860.54,261.2894 914.7606,423.7365 930.5306,480.7565 " fill="none" id="Subchef-to-UC6" style="stroke:#3357FF;stroke-width:1.0;"/><polygon fill="#3357FF" points="932.13,486.5394,933.5862,476.7988,930.7972,481.7203,925.8757,478.9313,932.13,486.5394" style="stroke:#3357FF;stroke-width:1.0;"/></g><!--link Subchef to UC10--><g id="link_Subchef_UC10"><path d="M51.9,320.1194 C59.19,347.0694 68.16,383.6994 73,416.6094 C83.94,490.9294 96.07,1018.1894 112,1091.6094 C137.51,1209.2194 196.7926,1334.9249 222.9026,1387.0449 " fill="none" id="Subchef-to-UC10" style="stroke:#3357FF;stroke-width:1.0;"/><polygon fill="#3357FF" points="225.59,1392.4094,225.1352,1382.571,223.3505,1387.939,217.9826,1386.1542,225.59,1392.4094" style="stroke:#3357FF;stroke-width:1.0;"/></g><!--link Cozinheiro to UC6--><g id="link_Cozinheiro_UC6"><path d="M73.23,469.1694 C140.84,460.2494 300.91,440.4194 436,433.6094 C571.16,426.7894 605.44,424.9594 740.5,433.6094 C778.73,436.0594 789.57,432.7294 826,444.6094 C856.94,454.6994 884.176,470.2446 905.886,484.3246 " fill="none" id="Cozinheiro-to-UC6" style="stroke:#FF33F5;stroke-width:1.0;"/><polygon fill="#FF33F5" points="910.92,487.5894,905.5455,479.3362,906.725,484.8687,901.1925,486.0482,910.92,487.5894" style="stroke:#FF33F5;stroke-width:1.0;"/></g><!--link Cozinheiro to UC10--><g id="link_Cozinheiro_UC10"><path d="M41.61,513.2694 C45.11,612.2794 59.12,877.7094 112,1091.6094 C140.95,1208.7294 198.6739,1335.1901 223.6739,1387.2801 " fill="none" id="Cozinheiro-to-UC10" style="stroke:#FF33F5;stroke-width:1.0;"/><polygon fill="#FF33F5" points="226.27,1392.6894,225.982,1382.8447,224.1066,1388.1817,218.7696,1386.3062,226.27,1392.6894" style="stroke:#FF33F5;stroke-width:1.0;"/></g><!--link AuxCozinha to UC6--><g id="link_AuxCozinha_UC6"><path d="M659.52,86.1694 C710.12,91.4794 781.65,106.8794 826,150.6094 C923.49,246.7194 935.4982,421.1008 936.7982,480.2708 " fill="none" id="AuxCozinha-to-UC6" style="stroke:#33FFF5;stroke-width:1.0;"/><polygon fill="#33FFF5" points="936.93,486.2694,940.7313,477.1837,936.8202,481.2706,932.7333,477.3594,936.93,486.2694" style="stroke:#33FFF5;stroke-width:1.0;"/></g><!--link Gar?om to UC9--><g id="link_Gar&#231;om_UC9"><path d="M67.07,1605.8094 C105.3,1580.1894 170.3255,1536.6193 207.6055,1511.6393 " fill="none" id="Gar&#231;om-to-UC9" style="stroke:#F5FF33;stroke-width:1.0;"/><polygon fill="#F5FF33" points="212.59,1508.2994,202.8867,1509.9863,208.4363,1511.0826,207.3399,1516.6322,212.59,1508.2994" style="stroke:#F5FF33;stroke-width:1.0;"/></g><!--link Gar?om to UC10--><g id="link_Gar&#231;om_UC10"><path d="M47.66,1584.0694 C56.5,1546.3294 75.12,1490.3494 112,1456.6094 C125.11,1444.6194 136.1276,1438.1419 153.0076,1432.1319 " fill="none" id="Gar&#231;om-to-UC10" style="stroke:#F5FF33;stroke-width:1.0;"/><polygon fill="#F5FF33" points="158.66,1430.1194,148.8397,1429.3698,153.9497,1431.7965,151.523,1436.9064,158.66,1430.1194" style="stroke:#F5FF33;stroke-width:1.0;"/></g><!--link Gar?om to UC13--><g id="link_Gar&#231;om_UC13"><path d="M67.04,1630.0294 C149.12,1649.8894 395.0683,1709.3882 520.3283,1739.6982 " fill="none" id="Gar&#231;om-to-UC13" style="stroke:#F5FF33;stroke-width:1.0;"/><polygon fill="#F5FF33" points="526.16,1741.1094,518.3532,1735.1049,521.3003,1739.9334,516.4717,1742.8805,526.16,1741.1094" style="stroke:#F5FF33;stroke-width:1.0;"/></g><!--link Gar?om to UC14--><g id="link_Gar&#231;om_UC14"><path d="M46.78,1663.5394 C57.27,1724.4894 80.37,1836.1394 112,1859.6094 C247.8,1960.3594 462.7684,1892.4606 552.7584,1856.9706 " fill="none" id="Gar&#231;om-to-UC14" style="stroke:#F5FF33;stroke-width:1.0;"/><polygon fill="#F5FF33" points="558.34,1854.7694,548.5001,1854.3502,553.6887,1856.6038,551.4351,1861.7923,558.34,1854.7694" style="stroke:#F5FF33;stroke-width:1.0;"/></g><!--link Barman to UC6--><g id="link_Barman_UC6"><path d="M44.19,1293.8394 C52.47,1211.8194 74.79,1027.4094 112,977.6094 C294.18,733.7794 482.18,866.5794 740.5,705.6094 C821.89,654.8894 890.8103,568.622 919.9003,529.322 " fill="none" id="Barman-to-UC6" style="stroke:#FF8C33;stroke-width:1.0;"/><polygon fill="#FF8C33" points="923.47,524.4994,914.9004,529.3535,920.4953,528.5182,921.3305,534.113,923.47,524.4994" style="stroke:#FF8C33;stroke-width:1.0;"/></g><!--link Barman to UC10--><g id="link_Barman_UC10"><path d="M67.07,1344.6694 C98.26,1357.6494 145.0706,1377.134 183.5406,1393.144 " fill="none" id="Barman-to-UC10" style="stroke:#FF8C33;stroke-width:1.0;"/><polygon fill="#FF8C33" points="189.08,1395.4494,182.3077,1388.2984,184.4638,1393.5283,179.2339,1395.6843,189.08,1395.4494" style="stroke:#FF8C33;stroke-width:1.0;"/></g><!--link Barman to UC11--><g id="link_Barman_UC11"><path d="M67.45,1331.2594 C131.41,1326.5294 296.86,1319.1494 428,1355.6094 C477.82,1369.4594 524.5759,1396.1047 557.8059,1417.6547 " fill="none" id="Barman-to-UC11" style="stroke:#FF8C33;stroke-width:1.0;"/><polygon fill="#FF8C33" points="562.84,1420.9194,557.4653,1412.6663,558.6449,1418.1988,553.1124,1419.3784,562.84,1420.9194" style="stroke:#FF8C33;stroke-width:1.0;"/></g><!--link Recepcionista to UC12--><g id="link_Recepcionista_UC12"><path d="M283.17,1823.3594 C372.45,1862.7094 580.9,1938.7694 740.5,1874.6094 C829.9,1838.6694 896.8305,1744.6325 922.8505,1703.7125 " fill="none" id="Recepcionista-to-UC12" style="stroke:#8C33FF;stroke-width:1.0;"/><polygon fill="#8C33FF" points="926.07,1698.6494,917.8654,1704.0977,923.3871,1702.8686,924.6162,1708.3903,926.07,1698.6494" style="stroke:#8C33FF;stroke-width:1.0;"/></g><!--link Recepcionista to UC13--><g id="link_Recepcionista_UC13"><path d="M283.16,1797.2594 C338.01,1790.5294 427.6346,1779.5497 499.2346,1770.7697 " fill="none" id="Recepcionista-to-UC13" style="stroke:#8C33FF;stroke-width:1.0;"/><polygon fill="#8C33FF" points="505.19,1770.0394,495.7701,1767.1645,500.2272,1770.6479,496.7438,1775.1051,505.19,1770.0394" style="stroke:#8C33FF;stroke-width:1.0;"/></g><!--link Recepcionista to UC14--><g id="link_Recepcionista_UC14"><path d="M283.16,1806.8594 C342.02,1812.5994 441.8483,1822.337 514.5483,1829.427 " fill="none" id="Recepcionista-to-UC14" style="stroke:#8C33FF;stroke-width:1.0;"/><polygon fill="#8C33FF" points="520.52,1830.0094,511.9508,1825.1547,515.5436,1829.5241,511.1742,1833.1169,520.52,1830.0094" style="stroke:#8C33FF;stroke-width:1.0;"/></g><!--link Recepcionista to UC15--><g id="link_Recepcionista_UC15"><path d="M283.03,1780.6294 C322.22,1761.5394 381.83,1734.2794 436,1716.6094 C467.87,1706.2094 498.3363,1699.0249 528.5663,1692.9849 " fill="none" id="Recepcionista-to-UC15" style="stroke:#8C33FF;stroke-width:1.0;"/><polygon fill="#8C33FF" points="534.45,1691.8094,524.8407,1689.6503,529.5469,1692.789,526.4082,1697.4952,534.45,1691.8094" style="stroke:#8C33FF;stroke-width:1.0;"/></g><!--link AuxLimpeza to UC6--><g id="link_AuxLimpeza_UC6"><path d="M660.16,275.9094 C708.78,283.5594 777.16,300.2994 826,336.6094 C879.95,376.7094 913.0235,445.828 927.4135,480.918 " fill="none" id="AuxLimpeza-to-UC6" style="stroke:#33FF8C;stroke-width:1.0;"/><polygon fill="#33FF8C" points="929.69,486.4694,929.9761,476.6247,927.7929,481.8433,922.5743,479.6601,929.69,486.4694" style="stroke:#33FF8C;stroke-width:1.0;"/></g><!--link UC1 to UC3--><g id="link_UC1_UC3"><path d="M665.81,1008.0294 C689.64,1014.3794 716.6,1022.4194 740.5,1031.6094 C802.06,1055.2794 864.917,1088.7742 902.607,1109.9142 " fill="none" id="UC1-to-UC3" style="stroke:#666666;stroke-width:1.0;stroke-dasharray:7.0,7.0;"/><polygon fill="#666666" points="907.84,1112.8494,901.9472,1104.9579,903.4791,1110.4034,898.0337,1111.9353,907.84,1112.8494" style="stroke:#666666;stroke-width:1.0;"/><text fill="#000000" font-family="sans-serif" font-size="13" lengthAdjust="spacing" textLength="55" x="770" y="1042.1045">&#171;include&#187;</text></g><!--link UC5 to UC6--><g id="link_UC5_UC6"><path d="M684.11,506.3594 C736.57,506.1994 797.87,506.0167 849.85,505.8667 " fill="none" id="UC5-to-UC6" style="stroke:#666666;stroke-width:1.0;stroke-dasharray:7.0,7.0;"/><polygon fill="#666666" points="855.85,505.8494,846.8385,501.8754,850.85,505.8638,846.8616,509.8753,855.85,505.8494" style="stroke:#666666;stroke-width:1.0;"/><text fill="#000000" font-family="sans-serif" font-size="13" lengthAdjust="spacing" textLength="55" x="770" y="503.1045">&#171;include&#187;</text></g><!--link UC9 to UC5--><g id="link_UC9_UC5"><path d="M301.3,1481.5794 C316.37,1476.2494 331.01,1468.0894 341,1455.6094 C441.6,1329.9794 414.99,897.0194 428,736.6094 C428.87,725.9094 429.13,551.8594 436,543.6094 C455.25,520.4794 479.7419,510.8992 509.0919,506.6492 " fill="none" id="UC9-to-UC5" style="stroke:#666666;stroke-width:1.0;stroke-dasharray:7.0,7.0;"/><polygon fill="#666666" points="515.03,505.7894,505.5497,503.1204,510.0816,506.5059,506.6961,511.0379,515.03,505.7894" style="stroke:#666666;stroke-width:1.0;"/><text fill="#000000" font-family="sans-serif" font-size="13" lengthAdjust="spacing" textLength="55" x="372" y="733.1045">&#171;include&#187;</text></g><!--link UC9 to UC6--><g id="link_UC9_UC6"><path d="M285.08,1477.7094 C335.75,1461.1894 412.51,1432.5794 428,1406.6094 C440.86,1385.0394 420.21,974.1394 436,954.6094 C523.35,846.5294 616.68,946.6994 740.5,883.6094 C785.28,860.7894 797.47,850.9794 826,809.6094 C891.87,714.0894 922.5474,580.7576 932.3874,530.4876 " fill="none" id="UC9-to-UC6" style="stroke:#666666;stroke-width:1.0;stroke-dasharray:7.0,7.0;"/><polygon fill="#666666" points="933.54,524.5994,927.8856,532.6634,932.5795,529.5063,935.7366,534.2001,933.54,524.5994" style="stroke:#666666;stroke-width:1.0;"/><text fill="#000000" font-family="sans-serif" font-size="13" lengthAdjust="spacing" textLength="55" x="572" y="880.1045">&#171;include&#187;</text></g><!--link UC9 to UC12--><g id="link_UC9_UC12"><path d="M288.55,1504.8994 C416.15,1539.4694 751.7188,1630.4001 880.8088,1665.3801 " fill="none" id="UC9-to-UC12" style="stroke:#666666;stroke-width:1.0;stroke-dasharray:7.0,7.0;"/><polygon fill="#666666" points="886.6,1666.9494,878.9594,1660.7347,881.774,1665.6417,876.8671,1668.4563,886.6,1666.9494" style="stroke:#666666;stroke-width:1.0;"/><text fill="#000000" font-family="sans-serif" font-size="13" lengthAdjust="spacing" textLength="55" x="572" y="1543.1045">&#171;include&#187;</text></g><!--link UC10 to UC11--><g id="link_UC10_UC11"><path d="M321.05,1429.3994 C337.55,1431.7994 354.8,1434.0194 371,1435.6094 C407.3,1439.1594 440.985,1441.204 476.895,1442.674 " fill="none" id="UC10-to-UC11" style="stroke:#666666;stroke-width:1.0;stroke-dasharray:7.0,7.0;"/><polygon fill="#666666" points="482.89,1442.9194,474.0611,1438.5546,477.8942,1442.7149,473.7339,1446.5479,482.89,1442.9194" style="stroke:#666666;stroke-width:1.0;"/><text fill="#000000" font-family="sans-serif" font-size="13" lengthAdjust="spacing" textLength="55" x="372" y="1432.1045">&#171;include&#187;</text></g><!--link UC14 to UC12--><g id="link_UC14_UC12"><path d="M663.44,1824.4994 C688.01,1818.3594 716.08,1810.0694 740.5,1799.6094 C807.04,1771.0994 873.117,1726.686 908.787,1701.216 " fill="none" id="UC14-to-UC12" style="stroke:#666666;stroke-width:1.0;stroke-dasharray:7.0,7.0;"/><polygon fill="#666666" points="913.67,1697.7294,904.0211,1699.704,909.6009,1700.6349,908.67,1706.2147,913.67,1697.7294" style="stroke:#666666;stroke-width:1.0;"/><text fill="#000000" font-family="sans-serif" font-size="13" lengthAdjust="spacing" textLength="55" x="770" y="1753.1045">&#171;include&#187;</text></g><!--link UC15 to UC12--><g id="link_UC15_UC12"><path d="M681.1,1680.6094 C735.44,1680.6094 800.72,1680.6094 854.24,1680.6094 " fill="none" id="UC15-to-UC12" style="stroke:#666666;stroke-width:1.0;stroke-dasharray:7.0,7.0;"/><polygon fill="#666666" points="860.24,1680.6094,851.24,1676.6094,855.24,1680.6094,851.24,1684.6094,860.24,1680.6094" style="stroke:#666666;stroke-width:1.0;"/><text fill="#000000" font-family="sans-serif" font-size="13" lengthAdjust="spacing" textLength="55" x="770" y="1677.1045">&#171;include&#187;</text></g><rect fill="#DDDDDD" height="172.4844" id="_legend" rx="7.5" ry="7.5" style="stroke:#000000;stroke-width:1.0;" width="151" x="865" y="1978.3594"/><text fill="#FF5733" font-family="sans-serif" font-size="14" lengthAdjust="spacing" textLength="12" x="870" y="1999.8926">&#9632;</text><text fill="#000000" font-family="sans-serif" font-size="14" lengthAdjust="spacing" textLength="52" x="886" y="1999.8926">Gerente</text><text fill="#33FF57" font-family="sans-serif" font-size="14" lengthAdjust="spacing" textLength="12" x="870" y="2017.502">&#9632;</text><text fill="#000000" font-family="sans-serif" font-size="14" lengthAdjust="spacing" textLength="105" x="886" y="2017.502">Chef de Cozinha</text><text fill="#3357FF" font-family="sans-serif" font-size="14" lengthAdjust="spacing" textLength="12" x="870" y="2035.1113">&#9632;</text><text fill="#000000" font-family="sans-serif" font-size="14" lengthAdjust="spacing" textLength="52" x="886" y="2035.1113">Subchef</text><text fill="#FF33F5" font-family="sans-serif" font-size="14" lengthAdjust="spacing" textLength="12" x="870" y="2052.7207">&#9632;</text><text fill="#000000" font-family="sans-serif" font-size="14" lengthAdjust="spacing" textLength="67" x="886" y="2052.7207">Cozinheiro</text><text fill="#33FFF5" font-family="sans-serif" font-size="14" lengthAdjust="spacing" textLength="12" x="870" y="2070.3301">&#9632;</text><text fill="#000000" font-family="sans-serif" font-size="14" lengthAdjust="spacing" textLength="120" x="886" y="2070.3301">Auxiliar de Cozinha</text><text fill="#F5FF33" font-family="sans-serif" font-size="14" lengthAdjust="spacing" textLength="12" x="870" y="2087.9395">&#9632;</text><text fill="#000000" font-family="sans-serif" font-size="14" lengthAdjust="spacing" textLength="50" x="886" y="2087.9395">Gar&#231;om</text><text fill="#FF8C33" font-family="sans-serif" font-size="14" lengthAdjust="spacing" textLength="12" x="870" y="2105.5488">&#9632;</text><text fill="#000000" font-family="sans-serif" font-size="14" lengthAdjust="spacing" textLength="49" x="886" y="2105.5488">Barman</text><text fill="#8C33FF" font-family="sans-serif" font-size="14" lengthAdjust="spacing" textLength="12" x="870" y="2123.1582">&#9632;</text><text fill="#000000" font-family="sans-serif" font-size="14" lengthAdjust="spacing" textLength="89" x="886" y="2123.1582">Recepcionista</text><text fill="#33FF8C" font-family="sans-serif" font-size="14" lengthAdjust="spacing" textLength="12" x="870" y="2140.7676">&#9632;</text><text fill="#000000" font-family="sans-serif" font-size="14" lengthAdjust="spacing" textLength="121" x="886" y="2140.7676">Auxiliar de Limpeza</text><line style="stroke:#000000;stroke-width:1.0;" x1="870" x2="1011" y1="1985.3594" y2="1985.3594"/><line style="stroke:#000000;stroke-width:1.0;" x1="870" x2="1011" y1="2002.9688" y2="2002.9688"/><line style="stroke:#000000;stroke-width:1.0;" x1="870" x2="1011" y1="2020.5781" y2="2020.5781"/><line style="stroke:#000000;stroke-width:1.0;" x1="870" x2="1011" y1="2038.1875" y2="2038.1875"/><line style="stroke:#000000;stroke-width:1.0;" x1="870" x2="1011" y1="2055.7969" y2="2055.7969"/><line style="stroke:#000000;stroke-width:1.0;" x1="870" x2="1011" y1="2073.4063" y2="2073.4063"/><line style="stroke:#000000;stroke-width:1.0;" x1="870" x2="1011" y1="2091.0156" y2="2091.0156"/><line style="stroke:#000000;stroke-width:1.0;" x1="870" x2="1011" y1="2108.625" y2="2108.625"/><line style="stroke:#000000;stroke-width:1.0;" x1="870" x2="1011" y1="2126.2344" y2="2126.2344"/><line style="stroke:#000000;stroke-width:1.0;" x1="870" x2="1011" y1="2143.8438" y2="2143.8438"/><line style="stroke:#000000;stroke-width:1.0;" x1="870" x2="870" y1="1985.3594" y2="2143.8438"/><line style="stroke:#000000;stroke-width:1.0;" x1="882" x2="882" y1="1985.3594" y2="2143.8438"/><line style="stroke:#000000;stroke-width:1.0;" x1="1011" x2="1011" y1="1985.3594" y2="2143.8438"/><!--SRC=[XLRDRXit4BxpAGZxu4kTH9PMaWr3WBAsqW9fOTX9BqKFzEv89hAxL4XkqhhgQ_JSe8USUYhw17gJFac7VwlTzJAH86artpV36N9-U4Alk8Jzv_rVWW85fNaXI05hJRMWacyUDCsHa6akAgBUyMhB92ifoxIGT_hN0YZx24gKq0AtB7l7Dk1WeykgJT4cr0eofe3-HYXzYUID57MLfw8GaXwlhipR84Bc8BrqObyeNKefFdhXrBx8xuHehd6jAyusQ9_H76ZAb53cuQqIz9JUSQN18Qz0GfLnLaA5CQBW5iDcjMIL1a9Ew1930qKpKUB7FELyRLGqA6BZTXOqeA-hP3OUU-bH-W1hkxHuvDK3Ew9CKIix7eyDq_FkwllCIvFPQkMbJWcu5COiAYJ1xBB-XHUSoRvfbFk_Re56unMJndcauDF-CpuUhn9Zq-ClcInPPPQPfutm5ZBOPdZAk55eq22DRnqNNlDo2u-D2_wlSs6UcWsyOPdGS87RfBJ9ArIw0QK4AuXF3Nhq53kowH1IuoYSagIhkZ9-xJz9BfHTzcqwQbElOCqhBkct72IJxskE56DMbbof_RyGbCxQIgcej1G5sbzcnW7F6RSvjx31tK2Rz5fbhB3PyqQoUrOyc6fvKykgyMXYql0GUyfall-qvOPthRHuNyCX-04m6dt3zUiamxJ6Z2LDswGVXEPhdXr8D9NxlpNFWibPpoGpsL0mlVy7TznbNQNgCj3dtKXl8EUvK8VelA0NqM4l7UwDdRSvIrspWZyYvqupNMFbYIvxzA9D_wxSIbxoO95MBDJ7Sqpne3BgklizAAQ-CJKFyeDDbEiFfX6q0eXIeeTaDSA2dJJxaQj-JCZgyCV3DiFoWJQ977nmpR4I5-rIItvVSzVNyJ1e5jfXZUtmqDhm6t-seifTVmkTxVGdtzj-FbtOSei0Pp5W70CcCI290TCOC8i1ysWSKNznuuZjrIXttJf4FYIT34gJGUbqK3eRbCu92TF18cO-1DiHO1e3i5P8QwZOUCrOQRoAOaQpDLoyZmTD4iQAqRE3nI7dCG0Dnf1n59aGuWULTSyCfE30i1nNYG0ZGhhZ3Gbkm3LfyMLy_1LyyXKyiHiQHgNVq7dQREY9RRXOhJYiAAQdX4x14ZH1dpspTKKlwEKbhxAYpc6nG2JnoFG9SkwH98h4TKPdJw3HYu2DdcAJB-WbCGpZVWqRg7A6LqxpwswSP7UPcGlUXQ_GnNz__7dvt8eMk-RojJlGN0brQRtBM9TkggHB3qMqQozkIg9dzL0qlVNxp85RMyUuJVLUPBuIEZwOFEhIV9AtM2xNkgnkGlQSdQTnPqEMxWWUY3kM_m40]--></g></svg>