<?xml version="1.0" encoding="us-ascii" standalone="no"?><svg xmlns="http://www.w3.org/2000/svg" xmlns:xlink="http://www.w3.org/1999/xlink" contentStyleType="text/css" height="2087px" preserveAspectRatio="none" style="width:3621px;height:2087px;background:#FFFFFF;" version="1.1" viewBox="0 0 3621 2087" width="3621px" zoomAndPan="magnify"><defs><filter height="1" id="b1rvgv0x162vkc0" width="1" x="0" y="0"><feFlood flood-color="#A3C4E0" result="flood"/><feComposite in="SourceGraphic" in2="flood" operator="over"/></filter><filter height="1" id="b1rvgv0x162vkc1" width="1" x="0" y="0"><feFlood flood-color="#95A5B6" result="flood"/><feComposite in="SourceGraphic" in2="flood" operator="over"/></filter><filter height="1" id="b1rvgv0x162vkc2" width="1" x="0" y="0"><feFlood flood-color="#FFD700" result="flood"/><feComposite in="SourceGraphic" in2="flood" operator="over"/></filter><filter height="1" id="b1rvgv0x162vkc3" width="1" x="0" y="0"><feFlood flood-color="#F18B82" result="flood"/><feComposite in="SourceGraphic" in2="flood" operator="over"/></filter><filter height="1" id="b1rvgv0x162vkc4" width="1" x="0" y="0"><feFlood flood-color="#B58FAA" result="flood"/><feComposite in="SourceGraphic" in2="flood" operator="over"/></filter></defs><g><text fill="#000000" font-family="Arial" font-size="14" font-weight="bold" lengthAdjust="spacing" textLength="493" x="1562.5" y="33.1318">Fluxo Completo de Atendimento ao Cliente com Formas de Pagamento</text><rect fill="none" height="20.6982" style="stroke:none;stroke-width:1.0;" width="3588" x="15" y="49.4131"/><rect fill="#A3C4E0" height="1890.934" style="stroke:#A3C4E0;stroke-width:1.0;" width="499" x="15" y="49.4131"/><ellipse cx="109.5" cy="85.1113" fill="#222222" rx="10" ry="10" style="stroke:#222222;stroke-width:1.0;"/><path d="M182.5,112.062 L182.5,128.0107 L162.5,132.0107 L182.5,136.0107 L182.5,151.9595 A0,0 0 0 0 182.5,151.9595 L355.5,151.9595 A0,0 0 0 0 355.5,151.9595 L355.5,122.062 L345.5,112.062 L182.5,112.062 A0,0 0 0 0 182.5,112.062 " fill="#FFFFFF" style="stroke:#FFFFFF;stroke-width:0.5;"/><path d="M345.5,112.062 L345.5,122.062 L355.5,122.062 L345.5,112.062 " fill="#FFFFFF" style="stroke:#FFFFFF;stroke-width:0.5;"/><text fill="#000000" font-family="Arial" font-size="13" lengthAdjust="spacing" textLength="152" x="188.5" y="129.2559">Verificar se possui reserva</text><text fill="#000000" font-family="Arial" font-size="13" lengthAdjust="spacing" textLength="141" x="188.5" y="144.2046">ou &#233; cliente sem reserva</text><rect fill="#FFFFFF" height="33.7988" rx="12.5" ry="12.5" style="stroke:#FFFFFF;stroke-width:0.5;" width="106" x="56.5" y="115.1113"/><text fill="#000000" font-family="Arial" font-size="12" lengthAdjust="spacing" textLength="86" x="66.5" y="136.3672">Receber cliente</text><rect fill="#FFFFFF" height="33.7988" rx="12.5" ry="12.5" style="stroke:#FFFFFF;stroke-width:0.5;" width="220" x="263" y="313.7583"/><text fill="#000000" font-family="Arial" font-size="12" lengthAdjust="spacing" textLength="200" x="273" y="335.0142">Informar indisponibilidade ao cliente</text><rect fill="#FFFFFF" height="33.7988" rx="12.5" ry="12.5" style="stroke:#FFFFFF;stroke-width:0.5;" width="274" x="236" y="367.5571"/><text fill="#000000" font-family="Arial" font-size="12" lengthAdjust="spacing" textLength="254" x="246" y="388.813">Sugerir espera ou registrar em lista de espera</text><ellipse cx="373" cy="432.356" fill="none" rx="11" ry="11" style="stroke:#222222;stroke-width:1.0;"/><ellipse cx="373" cy="432.356" fill="#222222" rx="6" ry="6" style="stroke:#222222;stroke-width:1.0;"/><rect fill="#FFFFFF" height="33.7988" rx="12.5" ry="12.5" style="stroke:#FFFFFF;stroke-width:0.5;" width="153" x="33" y="497.356"/><text fill="#000000" font-family="Arial" font-size="12" lengthAdjust="spacing" textLength="133" x="43" y="518.6118">Conduzir cliente &#224; mesa</text><rect fill="#FFFFFF" height="33.7988" rx="12.5" ry="12.5" style="stroke:#FFFFFF;stroke-width:0.5;" width="177" x="21" y="1703.1517"/><text fill="#000000" font-family="Arial" font-size="12" lengthAdjust="spacing" textLength="157" x="31" y="1724.4076">Registrar libera&#231;&#227;o da mesa</text><line style="stroke:#FFFFFF;stroke-width:1.5;" x1="15" x2="15" y1="49.4131" y2="1940.347"/><rect fill="#95A5B6" height="1890.934" style="stroke:#95A5B6;stroke-width:1.0;" width="1019.5" x="514" y="49.4131"/><polygon fill="#FFFFFF" points="1164.25,171.9595,1266.25,171.9595,1278.25,183.9595,1266.25,195.9595,1164.25,195.9595,1152.25,183.9595,1164.25,171.9595" style="stroke:#FFFFFF;stroke-width:0.5;"/><text fill="#000000" font-family="Arial" font-size="11" lengthAdjust="spacing" textLength="102" x="1164.25" y="187.9529">Cliente com reserva?</text><text fill="#000000" font-family="Arial" font-size="11" lengthAdjust="spacing" textLength="17" x="1135.25" y="181.6284">Sim</text><text fill="#000000" font-family="Arial" font-size="11" lengthAdjust="spacing" textLength="19" x="1278.25" y="181.6284">N&#227;o</text><rect fill="#FFFFFF" height="33.7988" rx="12.5" ry="12.5" style="stroke:#FFFFFF;stroke-width:0.5;" width="228" x="945.75" y="215.9595"/><text fill="#000000" font-family="Arial" font-size="12" lengthAdjust="spacing" textLength="208" x="955.75" y="237.2153">Verificar dados da reserva no sistema</text><rect fill="#FFFFFF" height="33.7988" rx="12.5" ry="12.5" style="stroke:#FFFFFF;stroke-width:0.5;" width="151" x="984.25" y="269.7583"/><text fill="#000000" font-family="Arial" font-size="12" lengthAdjust="spacing" textLength="131" x="994.25" y="291.0142">Atribuir mesa reservada</text><rect fill="#FFFFFF" height="33.7988" rx="12.5" ry="12.5" style="stroke:#FFFFFF;stroke-width:0.5;" width="237" x="1252.25" y="215.9595"/><text fill="#000000" font-family="Arial" font-size="12" lengthAdjust="spacing" textLength="217" x="1262.25" y="237.2153">Verificar mesas dispon&#237;veis no sistema</text><polygon fill="#FFFFFF" points="1315.25,269.7583,1426.25,269.7583,1438.25,281.7583,1426.25,293.7583,1315.25,293.7583,1303.25,281.7583,1315.25,269.7583" style="stroke:#FFFFFF;stroke-width:0.5;"/><text fill="#000000" font-family="Arial" font-size="11" lengthAdjust="spacing" textLength="111" x="1315.25" y="285.7517">H&#225; mesas dispon&#237;veis?</text><text fill="#000000" font-family="Arial" font-size="11" lengthAdjust="spacing" textLength="17" x="1286.25" y="279.4272">Sim</text><text fill="#000000" font-family="Arial" font-size="11" lengthAdjust="spacing" textLength="19" x="1438.25" y="279.4272">N&#227;o</text><rect fill="#FFFFFF" height="33.7988" rx="12.5" ry="12.5" style="stroke:#FFFFFF;stroke-width:0.5;" width="118" x="1203.75" y="313.7583"/><text fill="#000000" font-family="Arial" font-size="12" lengthAdjust="spacing" textLength="98" x="1213.75" y="335.0142">Atribuir mesa livre</text><polygon fill="#FFFFFF" points="1215.25,453.356,1227.25,465.356,1215.25,477.356,1203.25,465.356,1215.25,453.356" style="stroke:#FFFFFF;stroke-width:0.5;"/><rect fill="#FFFFFF" height="33.7988" rx="12.5" ry="12.5" style="stroke:#FFFFFF;stroke-width:0.5;" width="177" x="1126.75" y="658.7524"/><text fill="#000000" font-family="Arial" font-size="12" lengthAdjust="spacing" textLength="157" x="1136.75" y="680.0083">Registrar pedido no sistema</text><rect fill="#FFFFFF" height="33.7988" rx="12.5" ry="12.5" style="stroke:#FFFFFF;stroke-width:0.5;" width="269" x="1080.75" y="712.5513"/><text fill="#000000" font-family="Arial" font-size="12" lengthAdjust="spacing" textLength="249" x="1090.75" y="733.8071">Transmitir pedido detalhado para cozinha/bar</text><rect fill="#555555" height="6" rx="2.5" ry="2.5" style="stroke:#555555;stroke-width:1.0;" width="358" x="1036.25" y="766.3501"/><rect fill="#FFFFFF" height="33.7988" rx="12.5" ry="12.5" style="stroke:#FFFFFF;stroke-width:0.5;" width="142" x="1144.25" y="1085.1522"/><text fill="#000000" font-family="Arial" font-size="12" lengthAdjust="spacing" textLength="122" x="1154.25" y="1106.4081">Gerar conta detalhada</text><rect fill="#FFFFFF" height="33.7988" rx="12.5" ry="12.5" style="stroke:#FFFFFF;stroke-width:0.5;" width="206" x="520" y="1369.6454"/><text fill="#000000" font-family="Arial" font-size="12" lengthAdjust="spacing" textLength="186" x="530" y="1390.9012">Registrar pagamento em dinheiro</text><rect fill="#FFFFFF" height="33.7988" rx="12.5" ry="12.5" style="stroke:#FFFFFF;stroke-width:0.5;" width="199" x="736" y="1423.4442"/><text fill="#000000" font-family="Arial" font-size="12" lengthAdjust="spacing" textLength="179" x="746" y="1444.7001">Processar transa&#231;&#227;o com cart&#227;o</text><polygon fill="#FFFFFF" points="781.5,1492.243,889.5,1492.243,901.5,1504.243,889.5,1516.243,781.5,1516.243,769.5,1504.243,781.5,1492.243" style="stroke:#FFFFFF;stroke-width:0.5;"/><text fill="#000000" font-family="Arial" font-size="11" lengthAdjust="spacing" textLength="108" x="781.5" y="1508.2365">Pagamento aprovado?</text><text fill="#000000" font-family="Arial" font-size="11" lengthAdjust="spacing" textLength="17" x="752.5" y="1501.912">Sim</text><text fill="#000000" font-family="Arial" font-size="11" lengthAdjust="spacing" textLength="19" x="901.5" y="1501.912">N&#227;o</text><polygon fill="#FFFFFF" points="835.5,1639.1517,847.5,1651.1517,835.5,1663.1517,823.5,1651.1517,835.5,1639.1517" style="stroke:#FFFFFF;stroke-width:0.5;"/><text fill="#000000" font-family="Arial" font-size="11" lengthAdjust="spacing" textLength="175" x="847.5" y="1648.8207">Cliente escolhe forma de pagamento</text><rect fill="#FFFFFF" height="33.7988" rx="12.5" ry="12.5" style="stroke:#FFFFFF;stroke-width:0.5;" width="179" x="1242" y="1356.9965"/><text fill="#000000" font-family="Arial" font-size="12" lengthAdjust="spacing" textLength="159" x="1252" y="1378.2523">Aguardar confirma&#231;&#227;o do PIX</text><polygon fill="#FFFFFF" points="1292.5,1423.4442,1370.5,1423.4442,1382.5,1435.4442,1370.5,1447.4442,1292.5,1447.4442,1280.5,1435.4442,1292.5,1423.4442" style="stroke:#FFFFFF;stroke-width:0.5;"/><text fill="#000000" font-family="Arial" font-size="11" lengthAdjust="spacing" textLength="78" x="1292.5" y="1439.4376">PIX confirmado?</text><text fill="#000000" font-family="Arial" font-size="11" lengthAdjust="spacing" textLength="17" x="1263.5" y="1433.1132">Sim</text><text fill="#000000" font-family="Arial" font-size="11" lengthAdjust="spacing" textLength="19" x="1382.5" y="1433.1132">N&#227;o</text><rect fill="#FFFFFF" height="33.7988" rx="12.5" ry="12.5" style="stroke:#FFFFFF;stroke-width:0.5;" width="203" x="1114.75" y="1467.4442"/><text fill="#000000" font-family="Arial" font-size="12" lengthAdjust="spacing" textLength="183" x="1124.75" y="1488.7001">Confirmar recebimento ao cliente</text><polygon fill="#FFFFFF" points="1331.5,1581.5219,1343.5,1593.5219,1331.5,1605.5219,1319.5,1593.5219,1331.5,1581.5219" style="stroke:#FFFFFF;stroke-width:0.5;"/><text fill="#000000" font-family="Arial" font-size="11" lengthAdjust="spacing" textLength="175" x="1343.5" y="1591.1908">Cliente escolhe forma de pagamento</text><rect fill="#FFFFFF" height="33.7988" rx="12.5" ry="12.5" style="stroke:#FFFFFF;stroke-width:0.5;" width="220" x="1105.25" y="1756.9506"/><text fill="#000000" font-family="Arial" font-size="12" lengthAdjust="spacing" textLength="200" x="1115.25" y="1778.2064">Atualizar status da mesa para "Livre"</text><rect fill="#FFFFFF" height="33.7988" rx="12.5" ry="12.5" style="stroke:#FFFFFF;stroke-width:0.5;" width="239" x="1095.75" y="1810.7494"/><text fill="#000000" font-family="Arial" font-size="12" lengthAdjust="spacing" textLength="219" x="1105.75" y="1832.0052">Gerar registro completo do atendimento</text><rect fill="#FFFFFF" height="33.7988" rx="12.5" ry="12.5" style="stroke:#FFFFFF;stroke-width:0.5;" width="253" x="1088.75" y="1864.5482"/><text fill="#000000" font-family="Arial" font-size="12" lengthAdjust="spacing" textLength="233" x="1098.75" y="1885.8041">Emitir nota fiscal (se aplic&#225;vel e solicitado)</text><ellipse cx="1215.25" cy="1929.347" fill="none" rx="11" ry="11" style="stroke:#222222;stroke-width:1.0;"/><ellipse cx="1215.25" cy="1929.347" fill="#222222" rx="6" ry="6" style="stroke:#222222;stroke-width:1.0;"/><line style="stroke:#FFFFFF;stroke-width:1.5;" x1="514" x2="514" y1="49.4131" y2="1940.347"/><rect fill="#FFD700" height="1890.934" style="stroke:#FFD700;stroke-width:1.0;" width="1722" x="1533.5" y="49.4131"/><rect fill="#FFFFFF" height="33.7988" rx="12.5" ry="12.5" style="stroke:#FFFFFF;stroke-width:0.5;" width="131" x="2318.5" y="551.1548"/><text fill="#000000" font-family="Arial" font-size="12" lengthAdjust="spacing" textLength="111" x="2328.5" y="572.4106">Apresentar card&#225;pio</text><rect fill="#FFFFFF" height="33.7988" rx="12.5" ry="12.5" style="stroke:#FFFFFF;stroke-width:0.5;" width="159" x="2304.5" y="604.9536"/><text fill="#000000" font-family="Arial" font-size="12" lengthAdjust="spacing" textLength="139" x="2314.5" y="626.2095">Anotar pedidos do cliente</text><rect fill="#FFFFFF" height="33.7988" rx="12.5" ry="12.5" style="stroke:#FFFFFF;stroke-width:0.5;" width="160" x="2304" y="872.1489"/><text fill="#000000" font-family="Arial" font-size="12" lengthAdjust="spacing" textLength="140" x="2314" y="893.4048">Entregar pedidos &#224; mesa</text><rect fill="#FFFFFF" height="33.7988" rx="12.5" ry="12.5" style="stroke:#FFFFFF;stroke-width:0.5;" width="262" x="2253" y="969.9478"/><text fill="#000000" font-family="Arial" font-size="12" lengthAdjust="spacing" textLength="242" x="2263" y="991.2036">Verificar necessidades adicionais do cliente</text><polygon fill="#FFFFFF" points="2384,925.9478,2396,937.9478,2384,949.9478,2372,937.9478,2384,925.9478" style="stroke:#FFFFFF;stroke-width:0.5;"/><polygon fill="#FFFFFF" points="2314,1023.7466,2454,1023.7466,2466,1035.7466,2454,1047.7466,2314,1047.7466,2302,1035.7466,2314,1023.7466" style="stroke:#FFFFFF;stroke-width:0.5;"/><text fill="#000000" font-family="Arial" font-size="11" lengthAdjust="spacing" textLength="140" x="2314" y="1039.74">Cliente precisa de algo mais?</text><text fill="#000000" font-family="Arial" font-size="11" lengthAdjust="spacing" textLength="17" x="2466" y="1033.4155">Sim</text><rect fill="#FFFFFF" height="33.7988" rx="12.5" ry="12.5" style="stroke:#FFFFFF;stroke-width:0.5;" width="156" x="2306" y="1138.951"/><text fill="#000000" font-family="Arial" font-size="12" lengthAdjust="spacing" textLength="136" x="2316" y="1160.2069">Entregar conta ao cliente</text><rect fill="#FFFFFF" height="33.7988" rx="12.5" ry="12.5" style="stroke:#FFFFFF;stroke-width:0.5;" width="224" x="2272" y="1192.7499"/><text fill="#000000" font-family="Arial" font-size="12" lengthAdjust="spacing" textLength="204" x="2282" y="1214.0057">Cliente escolhe forma de pagamento</text><polygon fill="#FFFFFF" points="1577.5,1246.5487,1684.5,1246.5487,1696.5,1258.5487,1684.5,1270.5487,1577.5,1270.5487,1565.5,1258.5487,1577.5,1246.5487" style="stroke:#FFFFFF;stroke-width:0.5;"/><text fill="#000000" font-family="Arial" font-size="11" lengthAdjust="spacing" textLength="39" x="1635" y="1280.8666">Dinheiro</text><text fill="#000000" font-family="Arial" font-size="11" lengthAdjust="spacing" textLength="107" x="1577.5" y="1262.5421">Forma de Pagamento?</text><rect fill="#FFFFFF" height="33.7988" rx="12.5" ry="12.5" style="stroke:#FFFFFF;stroke-width:0.5;" width="165" x="1548.5" y="1303.1976"/><text fill="#000000" font-family="Arial" font-size="12" lengthAdjust="spacing" textLength="145" x="1558.5" y="1324.4535">Receber valor em dinheiro</text><rect fill="#FFFFFF" height="33.7988" rx="12.5" ry="12.5" style="stroke:#FFFFFF;stroke-width:0.5;" width="155" x="1553.5" y="1484.4176"/><text fill="#000000" font-family="Arial" font-size="12" lengthAdjust="spacing" textLength="135" x="1563.5" y="1505.6735">Calcular e entregar troco</text><polygon fill="#FFFFFF" points="1586.5,1436.0931,1675.5,1436.0931,1687.5,1448.0931,1675.5,1460.0931,1586.5,1460.0931,1574.5,1448.0931,1586.5,1436.0931" style="stroke:#FFFFFF;stroke-width:0.5;"/><text fill="#000000" font-family="Arial" font-size="11" lengthAdjust="spacing" textLength="17" x="1635" y="1470.411">Sim</text><text fill="#000000" font-family="Arial" font-size="11" lengthAdjust="spacing" textLength="89" x="1586.5" y="1452.0865">Necess&#225;rio troco?</text><polygon fill="#FFFFFF" points="1631,1542.5409,1643,1554.5409,1631,1566.5409,1619,1554.5409,1631,1542.5409" style="stroke:#FFFFFF;stroke-width:0.5;"/><polygon fill="#FFFFFF" points="1988.25,1246.5487,2020.25,1246.5487,2032.25,1258.5487,2020.25,1270.5487,1988.25,1270.5487,1976.25,1258.5487,1988.25,1246.5487" style="stroke:#FFFFFF;stroke-width:0.5;"/><text fill="#000000" font-family="Arial" font-size="11" lengthAdjust="spacing" textLength="32" x="1988.25" y="1262.5421">Cart&#227;o</text><rect fill="#FFFFFF" height="33.7988" rx="12.5" ry="12.5" style="stroke:#FFFFFF;stroke-width:0.5;" width="186" x="1911.25" y="1290.5487"/><text fill="#000000" font-family="Arial" font-size="12" lengthAdjust="spacing" textLength="166" x="1921.25" y="1311.8046">Apresentar m&#225;quina de cart&#227;o</text><rect fill="#FFFFFF" height="33.7988" rx="12.5" ry="12.5" style="stroke:#FFFFFF;stroke-width:0.5;" width="188" x="1910.25" y="1356.9965"/><text fill="#000000" font-family="Arial" font-size="12" lengthAdjust="spacing" textLength="168" x="1920.25" y="1378.2523">Cliente insere/aproxima cart&#227;o</text><rect fill="#FFFFFF" height="33.7988" rx="12.5" ry="12.5" style="stroke:#FFFFFF;stroke-width:0.5;" width="278" x="1732.5" y="1536.243"/><text fill="#000000" font-family="Arial" font-size="12" lengthAdjust="spacing" textLength="258" x="1742.5" y="1557.4989">Entregar comprovante ao cliente (se solicitado)</text><rect fill="#FFFFFF" height="33.7988" rx="12.5" ry="12.5" style="stroke:#FFFFFF;stroke-width:0.5;" width="197" x="2038.5" y="1536.243"/><text fill="#000000" font-family="Arial" font-size="12" lengthAdjust="spacing" textLength="177" x="2048.5" y="1557.4989">Informar problema na transa&#231;&#227;o</text><rect fill="#FFFFFF" height="33.7988" rx="12.5" ry="12.5" style="stroke:#FFFFFF;stroke-width:0.5;" width="213" x="2030.5" y="1593.8729"/><text fill="#000000" font-family="Arial" font-size="12" lengthAdjust="spacing" textLength="193" x="2040.5" y="1615.1288">Solicitar outra forma de pagamento</text><polygon fill="#FFFFFF" points="2488.25,1246.5487,2512.25,1246.5487,2524.25,1258.5487,2512.25,1270.5487,2488.25,1270.5487,2476.25,1258.5487,2488.25,1246.5487" style="stroke:#FFFFFF;stroke-width:0.5;"/><text fill="#000000" font-family="Arial" font-size="11" lengthAdjust="spacing" textLength="15" x="2492.75" y="1262.5421">PIX</text><text fill="#000000" font-family="Arial" font-size="11" lengthAdjust="spacing" textLength="58" x="2524.25" y="1256.2177">Outra forma</text><rect fill="#FFFFFF" height="33.7988" rx="12.5" ry="12.5" style="stroke:#FFFFFF;stroke-width:0.5;" width="193" x="2403.75" y="1290.5487"/><text fill="#000000" font-family="Arial" font-size="12" lengthAdjust="spacing" textLength="173" x="2413.75" y="1311.8046">Apresentar QR Code/Chave PIX</text><rect fill="#FFFFFF" height="33.7988" rx="12.5" ry="12.5" style="stroke:#FFFFFF;stroke-width:0.5;" width="218" x="2506.5" y="1467.4442"/><text fill="#000000" font-family="Arial" font-size="12" lengthAdjust="spacing" textLength="198" x="2516.5" y="1488.7001">Informar problema na transa&#231;&#227;o PIX</text><rect fill="#FFFFFF" height="33.7988" rx="12.5" ry="12.5" style="stroke:#FFFFFF;stroke-width:0.5;" width="213" x="2509" y="1536.243"/><text fill="#000000" font-family="Arial" font-size="12" lengthAdjust="spacing" textLength="193" x="2519" y="1557.4989">Solicitar outra forma de pagamento</text><path d="M2734.5,1476.1937 L2734.5,1501.1425 A0,0 0 0 0 2734.5,1501.1425 L3005.5,1501.1425 A0,0 0 0 0 3005.5,1501.1425 L3005.5,1494.1937 L3025.5,1488.6681 L3005.5,1486.1937 L3005.5,1486.1937 L2995.5,1476.1937 L2734.5,1476.1937 A0,0 0 0 0 2734.5,1476.1937 " fill="#FFFFFF" style="stroke:#FFFFFF;stroke-width:0.5;"/><path d="M2995.5,1476.1937 L2995.5,1486.1937 L3005.5,1486.1937 L2995.5,1476.1937 " fill="#FFFFFF" style="stroke:#FFFFFF;stroke-width:0.5;"/><text fill="#000000" font-family="Arial" font-size="13" lengthAdjust="spacing" textLength="250" x="2740.5" y="1493.3876">Detalhar conforme necess&#225;rio (ex: voucher)</text><rect fill="#FFFFFF" height="33.7988" rx="12.5" ry="12.5" style="stroke:#FFFFFF;stroke-width:0.5;" width="226" x="3025.5" y="1471.7687"/><text fill="#000000" font-family="Arial" font-size="12" lengthAdjust="spacing" textLength="206" x="3035.5" y="1493.0245">Processar outra forma de pagamento</text><line style="stroke:#FFFFFF;stroke-width:1.5;" x1="1533.5" x2="1533.5" y1="49.4131" y2="1940.347"/><rect fill="#F18B82" height="1890.934" style="stroke:#F18B82;stroke-width:1.0;" width="179" x="3255.5" y="49.4131"/><rect fill="#FFFFFF" height="33.7988" rx="12.5" ry="12.5" style="stroke:#FFFFFF;stroke-width:0.5;" width="169" x="3261.5" y="792.3501"/><text fill="#000000" font-family="Arial" font-size="12" lengthAdjust="spacing" textLength="149" x="3271.5" y="813.606">Cozinha prepara alimentos</text><line style="stroke:#FFFFFF;stroke-width:1.5;" x1="3255.5" x2="3255.5" y1="49.4131" y2="1940.347"/><rect fill="#B58FAA" height="1890.934" style="stroke:#B58FAA;stroke-width:1.0;" width="167" x="3434.5" y="49.4131"/><rect fill="#FFFFFF" height="33.7988" rx="12.5" ry="12.5" style="stroke:#FFFFFF;stroke-width:0.5;" width="133" x="3452.5" y="792.3501"/><text fill="#000000" font-family="Arial" font-size="12" lengthAdjust="spacing" textLength="113" x="3462.5" y="813.606">Bar prepara bebidas</text><rect fill="#555555" height="6" rx="2.5" ry="2.5" style="stroke:#555555;stroke-width:1.0;" width="157" x="3440.5" y="846.1489"/><line style="stroke:#FFFFFF;stroke-width:1.5;" x1="3434.5" x2="3434.5" y1="49.4131" y2="1940.347"/><line style="stroke:#FFFFFF;stroke-width:1.5;" x1="3601.5" x2="3601.5" y1="49.4131" y2="1940.347"/><line style="stroke:#FFFFFF;stroke-width:1.0;" x1="109.5" x2="109.5" y1="95.1113" y2="115.1113"/><polygon fill="#FFFFFF" points="105.5,105.1113,109.5,115.1113,113.5,105.1113,109.5,109.1113" style="stroke:#FFFFFF;stroke-width:1.0;"/><line style="stroke:#FFFFFF;stroke-width:1.0;" x1="373" x2="373" y1="347.5571" y2="367.5571"/><polygon fill="#FFFFFF" points="369,357.5571,373,367.5571,377,357.5571,373,361.5571" style="stroke:#FFFFFF;stroke-width:1.0;"/><line style="stroke:#FFFFFF;stroke-width:1.0;" x1="373" x2="373" y1="401.356" y2="421.356"/><polygon fill="#FFFFFF" points="369,411.356,373,421.356,377,411.356,373,415.356" style="stroke:#FFFFFF;stroke-width:1.0;"/><line style="stroke:#FFFFFF;stroke-width:1.0;" x1="1059.75" x2="1059.75" y1="249.7583" y2="269.7583"/><polygon fill="#FFFFFF" points="1055.75,259.7583,1059.75,269.7583,1063.75,259.7583,1059.75,263.7583" style="stroke:#FFFFFF;stroke-width:1.0;"/><line style="stroke:#FFFFFF;stroke-width:1.0;" x1="1303.25" x2="1262.75" y1="281.7583" y2="281.7583"/><line style="stroke:#FFFFFF;stroke-width:1.0;" x1="1262.75" x2="1262.75" y1="281.7583" y2="313.7583"/><polygon fill="#FFFFFF" points="1258.75,303.7583,1262.75,313.7583,1266.75,303.7583,1262.75,307.7583" style="stroke:#FFFFFF;stroke-width:1.0;"/><line style="stroke:#FFFFFF;stroke-width:1.0;" x1="1262.75" x2="1262.75" y1="347.5571" y2="465.356"/><line style="stroke:#FFFFFF;stroke-width:1.0;" x1="1262.75" x2="1227.25" y1="465.356" y2="465.356"/><polygon fill="#FFFFFF" points="1237.25,461.356,1227.25,465.356,1237.25,469.356,1233.25,465.356" style="stroke:#FFFFFF;stroke-width:1.0;"/><line style="stroke:#FFFFFF;stroke-width:1.0;" x1="1370.75" x2="1370.75" y1="249.7583" y2="269.7583"/><polygon fill="#FFFFFF" points="1366.75,259.7583,1370.75,269.7583,1374.75,259.7583,1370.75,263.7583" style="stroke:#FFFFFF;stroke-width:1.0;"/><line style="stroke:#FFFFFF;stroke-width:1.0;" x1="1152.25" x2="1059.75" y1="183.9595" y2="183.9595"/><line style="stroke:#FFFFFF;stroke-width:1.0;" x1="1059.75" x2="1059.75" y1="183.9595" y2="215.9595"/><polygon fill="#FFFFFF" points="1055.75,205.9595,1059.75,215.9595,1063.75,205.9595,1059.75,209.9595" style="stroke:#FFFFFF;stroke-width:1.0;"/><line style="stroke:#FFFFFF;stroke-width:1.0;" x1="1278.25" x2="1370.75" y1="183.9595" y2="183.9595"/><line style="stroke:#FFFFFF;stroke-width:1.0;" x1="1370.75" x2="1370.75" y1="183.9595" y2="215.9595"/><polygon fill="#FFFFFF" points="1366.75,205.9595,1370.75,215.9595,1374.75,205.9595,1370.75,209.9595" style="stroke:#FFFFFF;stroke-width:1.0;"/><line style="stroke:#FFFFFF;stroke-width:1.0;" x1="1059.75" x2="1059.75" y1="303.5571" y2="465.356"/><line style="stroke:#FFFFFF;stroke-width:1.0;" x1="1059.75" x2="1203.25" y1="465.356" y2="465.356"/><polygon fill="#FFFFFF" points="1193.25,461.356,1203.25,465.356,1193.25,469.356,1197.25,465.356" style="stroke:#FFFFFF;stroke-width:1.0;"/><line style="stroke:#FFFFFF;stroke-width:1.0;" x1="1215.25" x2="1215.25" y1="692.5513" y2="712.5513"/><polygon fill="#FFFFFF" points="1211.25,702.5513,1215.25,712.5513,1219.25,702.5513,1215.25,706.5513" style="stroke:#FFFFFF;stroke-width:1.0;"/><line style="stroke:#FFFFFF;stroke-width:1.0;" x1="1215.25" x2="1215.25" y1="746.3501" y2="766.3501"/><polygon fill="#FFFFFF" points="1211.25,756.3501,1215.25,766.3501,1219.25,756.3501,1215.25,760.3501" style="stroke:#FFFFFF;stroke-width:1.0;"/><line style="stroke:#FFFFFF;stroke-width:1.0;" x1="835.5" x2="835.5" y1="1457.243" y2="1492.243"/><polygon fill="#FFFFFF" points="831.5,1482.243,835.5,1492.243,839.5,1482.243,835.5,1486.243" style="stroke:#FFFFFF;stroke-width:1.0;"/><line style="stroke:#FFFFFF;stroke-width:1.0;" x1="1280.5" x2="1216.25" y1="1435.4442" y2="1435.4442"/><line style="stroke:#FFFFFF;stroke-width:1.0;" x1="1216.25" x2="1216.25" y1="1435.4442" y2="1467.4442"/><polygon fill="#FFFFFF" points="1212.25,1457.4442,1216.25,1467.4442,1220.25,1457.4442,1216.25,1461.4442" style="stroke:#FFFFFF;stroke-width:1.0;"/><line style="stroke:#FFFFFF;stroke-width:1.0;" x1="1216.25" x2="1216.25" y1="1501.243" y2="1593.5219"/><line style="stroke:#FFFFFF;stroke-width:1.0;" x1="1216.25" x2="1319.5" y1="1593.5219" y2="1593.5219"/><polygon fill="#FFFFFF" points="1309.5,1589.5219,1319.5,1593.5219,1309.5,1597.5219,1313.5,1593.5219" style="stroke:#FFFFFF;stroke-width:1.0;"/><line style="stroke:#FFFFFF;stroke-width:1.0;" x1="1331.5" x2="1331.5" y1="1390.7953" y2="1423.4442"/><polygon fill="#FFFFFF" points="1327.5,1413.4442,1331.5,1423.4442,1335.5,1413.4442,1331.5,1417.4442" style="stroke:#FFFFFF;stroke-width:1.0;"/><line style="stroke:#FFFFFF;stroke-width:1.0;" x1="835.5" x2="835.5" y1="1663.1517" y2="1683.1517"/><polygon fill="#FFFFFF" points="831.5,1673.1517,835.5,1683.1517,839.5,1673.1517,835.5,1677.1517" style="stroke:#FFFFFF;stroke-width:1.0;"/><line style="stroke:#FFFFFF;stroke-width:1.0;" x1="1331.5" x2="1331.5" y1="1605.5219" y2="1683.1517"/><polygon fill="#FFFFFF" points="1327.5,1673.1517,1331.5,1683.1517,1335.5,1673.1517,1331.5,1677.1517" style="stroke:#FFFFFF;stroke-width:1.0;"/><line style="stroke:#FFFFFF;stroke-width:1.0;" x1="835.5" x2="1528.5" y1="1683.1517" y2="1683.1517"/><line style="stroke:#FFFFFF;stroke-width:1.0;" x1="1215.25" x2="1215.25" y1="1790.7494" y2="1810.7494"/><polygon fill="#FFFFFF" points="1211.25,1800.7494,1215.25,1810.7494,1219.25,1800.7494,1215.25,1804.7494" style="stroke:#FFFFFF;stroke-width:1.0;"/><line style="stroke:#FFFFFF;stroke-width:1.0;" x1="1215.25" x2="1215.25" y1="1844.5482" y2="1864.5482"/><polygon fill="#FFFFFF" points="1211.25,1854.5482,1215.25,1864.5482,1219.25,1854.5482,1215.25,1858.5482" style="stroke:#FFFFFF;stroke-width:1.0;"/><line style="stroke:#FFFFFF;stroke-width:1.0;" x1="1215.25" x2="1215.25" y1="1898.347" y2="1918.347"/><polygon fill="#FFFFFF" points="1211.25,1908.347,1215.25,1918.347,1219.25,1908.347,1215.25,1912.347" style="stroke:#FFFFFF;stroke-width:1.0;"/><line style="stroke:#FFFFFF;stroke-width:1.0;" x1="2384" x2="2384" y1="584.9536" y2="604.9536"/><polygon fill="#FFFFFF" points="2380,594.9536,2384,604.9536,2388,594.9536,2384,598.9536" style="stroke:#FFFFFF;stroke-width:1.0;"/><line style="stroke:#FFFFFF;stroke-width:1.0;" x1="2384" x2="2384" y1="949.9478" y2="969.9478"/><polygon fill="#FFFFFF" points="2380,959.9478,2384,969.9478,2388,959.9478,2384,963.9478" style="stroke:#FFFFFF;stroke-width:1.0;"/><line style="stroke:#FFFFFF;stroke-width:1.0;" x1="2466" x2="2527" y1="1035.7466" y2="1035.7466"/><polygon fill="#FFFFFF" points="2523,996.8472,2527,986.8472,2531,996.8472,2527,992.8472" style="stroke:#FFFFFF;stroke-width:1.0;"/><line style="stroke:#FFFFFF;stroke-width:1.0;" x1="2527" x2="2527" y1="937.9478" y2="1035.7466"/><line style="stroke:#FFFFFF;stroke-width:1.0;" x1="2527" x2="2396" y1="937.9478" y2="937.9478"/><polygon fill="#FFFFFF" points="2406,933.9478,2396,937.9478,2406,941.9478,2402,937.9478" style="stroke:#FFFFFF;stroke-width:1.0;"/><line style="stroke:#FFFFFF;stroke-width:1.0;" x1="2384" x2="2384" y1="1003.7466" y2="1023.7466"/><polygon fill="#FFFFFF" points="2380,1013.7466,2384,1023.7466,2388,1013.7466,2384,1017.7466" style="stroke:#FFFFFF;stroke-width:1.0;"/><line style="stroke:#FFFFFF;stroke-width:1.0;" x1="2384" x2="2384" y1="905.9478" y2="925.9478"/><polygon fill="#FFFFFF" points="2380,915.9478,2384,925.9478,2388,915.9478,2384,919.9478" style="stroke:#FFFFFF;stroke-width:1.0;"/><line style="stroke:#FFFFFF;stroke-width:1.0;" x1="2384" x2="2384" y1="1172.7499" y2="1192.7499"/><polygon fill="#FFFFFF" points="2380,1182.7499,2384,1192.7499,2388,1182.7499,2384,1186.7499" style="stroke:#FFFFFF;stroke-width:1.0;"/><line style="stroke:#FFFFFF;stroke-width:1.0;" x1="1631" x2="1631" y1="1460.0931" y2="1484.4176"/><polygon fill="#FFFFFF" points="1627,1474.4176,1631,1484.4176,1635,1474.4176,1631,1478.4176" style="stroke:#FFFFFF;stroke-width:1.0;"/><line style="stroke:#FFFFFF;stroke-width:1.0;" x1="1687.5" x2="1718.5" y1="1448.0931" y2="1448.0931"/><polygon fill="#FFFFFF" points="1714.5,1491.317,1718.5,1501.317,1722.5,1491.317,1718.5,1495.317" style="stroke:#FFFFFF;stroke-width:1.0;"/><line style="stroke:#FFFFFF;stroke-width:1.0;" x1="1718.5" x2="1718.5" y1="1448.0931" y2="1554.5409"/><line style="stroke:#FFFFFF;stroke-width:1.0;" x1="1718.5" x2="1643" y1="1554.5409" y2="1554.5409"/><polygon fill="#FFFFFF" points="1653,1550.5409,1643,1554.5409,1653,1558.5409,1649,1554.5409" style="stroke:#FFFFFF;stroke-width:1.0;"/><line style="stroke:#FFFFFF;stroke-width:1.0;" x1="1631" x2="1631" y1="1518.2164" y2="1542.5409"/><polygon fill="#FFFFFF" points="1627,1532.5409,1631,1542.5409,1635,1532.5409,1631,1536.5409" style="stroke:#FFFFFF;stroke-width:1.0;"/><line style="stroke:#FFFFFF;stroke-width:1.0;" x1="2004.25" x2="2004.25" y1="1324.3475" y2="1356.9965"/><polygon fill="#FFFFFF" points="2000.25,1346.9965,2004.25,1356.9965,2008.25,1346.9965,2004.25,1350.9965" style="stroke:#FFFFFF;stroke-width:1.0;"/><line style="stroke:#FFFFFF;stroke-width:1.0;" x1="2137" x2="2137" y1="1570.0419" y2="1593.8729"/><polygon fill="#FFFFFF" points="2133,1583.8729,2137,1593.8729,2141,1583.8729,2137,1587.8729" style="stroke:#FFFFFF;stroke-width:1.0;"/><line style="stroke:#FFFFFF;stroke-width:1.0;" x1="2615.5" x2="2615.5" y1="1501.243" y2="1536.243"/><polygon fill="#FFFFFF" points="2611.5,1526.243,2615.5,1536.243,2619.5,1526.243,2615.5,1530.243" style="stroke:#FFFFFF;stroke-width:1.0;"/><line style="stroke:#FFFFFF;stroke-width:1.0;" x1="1631" x2="1631" y1="1270.5487" y2="1303.1976"/><polygon fill="#FFFFFF" points="1627,1293.1976,1631,1303.1976,1635,1293.1976,1631,1297.1976" style="stroke:#FFFFFF;stroke-width:1.0;"/><line style="stroke:#FFFFFF;stroke-width:1.0;" x1="1631" x2="1631" y1="1566.5409" y2="1683.1517"/><polygon fill="#FFFFFF" points="1627,1673.1517,1631,1683.1517,1635,1673.1517,1631,1677.1517" style="stroke:#FFFFFF;stroke-width:1.0;"/><line style="stroke:#FFFFFF;stroke-width:1.0;" x1="2004.25" x2="2004.25" y1="1270.5487" y2="1290.5487"/><polygon fill="#FFFFFF" points="2000.25,1280.5487,2004.25,1290.5487,2008.25,1280.5487,2004.25,1284.5487" style="stroke:#FFFFFF;stroke-width:1.0;"/><line style="stroke:#FFFFFF;stroke-width:1.0;" x1="2500.25" x2="2500.25" y1="1270.5487" y2="1290.5487"/><polygon fill="#FFFFFF" points="2496.25,1280.5487,2500.25,1290.5487,2504.25,1280.5487,2500.25,1284.5487" style="stroke:#FFFFFF;stroke-width:1.0;"/><line style="stroke:#FFFFFF;stroke-width:1.0;" x1="1696.5" x2="1976.25" y1="1258.5487" y2="1258.5487"/><polygon fill="#FFFFFF" points="1966.25,1254.5487,1976.25,1258.5487,1966.25,1262.5487,1970.25,1258.5487" style="stroke:#FFFFFF;stroke-width:1.0;"/><line style="stroke:#FFFFFF;stroke-width:1.0;" x1="2032.25" x2="2476.25" y1="1258.5487" y2="1258.5487"/><polygon fill="#FFFFFF" points="2466.25,1254.5487,2476.25,1258.5487,2466.25,1262.5487,2470.25,1258.5487" style="stroke:#FFFFFF;stroke-width:1.0;"/><line style="stroke:#FFFFFF;stroke-width:1.0;" x1="2384" x2="2384" y1="1226.5487" y2="1231.5487"/><line style="stroke:#FFFFFF;stroke-width:1.0;" x1="2384" x2="1631" y1="1231.5487" y2="1231.5487"/><line style="stroke:#FFFFFF;stroke-width:1.0;" x1="1631" x2="1631" y1="1231.5487" y2="1246.5487"/><polygon fill="#FFFFFF" points="1627,1236.5487,1631,1246.5487,1635,1236.5487,1631,1240.5487" style="stroke:#FFFFFF;stroke-width:1.0;"/><line style="stroke:#FFFFFF;stroke-width:1.0;" x1="2524.25" x2="3138.5" y1="1258.5487" y2="1258.5487"/><line style="stroke:#FFFFFF;stroke-width:1.0;" x1="3138.5" x2="3138.5" y1="1258.5487" y2="1471.7687"/><polygon fill="#FFFFFF" points="3134.5,1461.7687,3138.5,1471.7687,3142.5,1461.7687,3138.5,1465.7687" style="stroke:#FFFFFF;stroke-width:1.0;"/><line style="stroke:#FFFFFF;stroke-width:1.0;" x1="3138.5" x2="3138.5" y1="1505.5675" y2="1683.1517"/><polygon fill="#FFFFFF" points="3134.5,1673.1517,3138.5,1683.1517,3142.5,1673.1517,3138.5,1677.1517" style="stroke:#FFFFFF;stroke-width:1.0;"/><line style="stroke:#FFFFFF;stroke-width:1.0;" x1="1538.5" x2="3138.5" y1="1683.1517" y2="1683.1517"/><line style="stroke:#FFFFFF;stroke-width:1.0;" x1="3519" x2="3519" y1="826.1489" y2="846.1489"/><polygon fill="#FFFFFF" points="3515,836.1489,3519,846.1489,3523,836.1489,3519,840.1489" style="stroke:#FFFFFF;stroke-width:1.0;"/><line style="stroke:#FFFFFF;stroke-width:1.0;" x1="1438.25" x2="1450.25" y1="281.7583" y2="281.7583"/><line style="stroke:#FFFFFF;stroke-width:1.0;" x1="1450.25" x2="1450.25" y1="281.7583" y2="299.7583"/><line style="stroke:#FFFFFF;stroke-width:1.0;" x1="1450.25" x2="373" y1="299.7583" y2="299.7583"/><line style="stroke:#FFFFFF;stroke-width:1.0;" x1="373" x2="373" y1="299.7583" y2="313.7583"/><polygon fill="#FFFFFF" points="369,303.7583,373,313.7583,377,303.7583,373,307.7583" style="stroke:#FFFFFF;stroke-width:1.0;"/><line style="stroke:#FFFFFF;stroke-width:1.0;" x1="109.5" x2="109.5" y1="148.9102" y2="156.9595"/><line style="stroke:#FFFFFF;stroke-width:1.0;" x1="109.5" x2="1215.25" y1="156.9595" y2="156.9595"/><line style="stroke:#FFFFFF;stroke-width:1.0;" x1="1215.25" x2="1215.25" y1="156.9595" y2="171.9595"/><polygon fill="#FFFFFF" points="1211.25,161.9595,1215.25,171.9595,1219.25,161.9595,1215.25,165.9595" style="stroke:#FFFFFF;stroke-width:1.0;"/><line style="stroke:#FFFFFF;stroke-width:1.0;" x1="1215.25" x2="1215.25" y1="477.356" y2="482.356"/><line style="stroke:#FFFFFF;stroke-width:1.0;" x1="1215.25" x2="109.5" y1="482.356" y2="482.356"/><line style="stroke:#FFFFFF;stroke-width:1.0;" x1="109.5" x2="109.5" y1="482.356" y2="497.356"/><polygon fill="#FFFFFF" points="105.5,487.356,109.5,497.356,113.5,487.356,109.5,491.356" style="stroke:#FFFFFF;stroke-width:1.0;"/><line style="stroke:#FFFFFF;stroke-width:1.0;" x1="109.5" x2="109.5" y1="531.1548" y2="536.1548"/><line style="stroke:#FFFFFF;stroke-width:1.0;" x1="109.5" x2="2384" y1="536.1548" y2="536.1548"/><line style="stroke:#FFFFFF;stroke-width:1.0;" x1="2384" x2="2384" y1="536.1548" y2="551.1548"/><polygon fill="#FFFFFF" points="2380,541.1548,2384,551.1548,2388,541.1548,2384,545.1548" style="stroke:#FFFFFF;stroke-width:1.0;"/><line style="stroke:#FFFFFF;stroke-width:1.0;" x1="2384" x2="2384" y1="638.7524" y2="643.7524"/><line style="stroke:#FFFFFF;stroke-width:1.0;" x1="2384" x2="1215.25" y1="643.7524" y2="643.7524"/><line style="stroke:#FFFFFF;stroke-width:1.0;" x1="1215.25" x2="1215.25" y1="643.7524" y2="658.7524"/><polygon fill="#FFFFFF" points="1211.25,648.7524,1215.25,658.7524,1219.25,648.7524,1215.25,652.7524" style="stroke:#FFFFFF;stroke-width:1.0;"/><line style="stroke:#FFFFFF;stroke-width:1.0;" x1="1134.75" x2="1134.75" y1="772.3501" y2="776.3501"/><line style="stroke:#FFFFFF;stroke-width:1.0;" x1="1134.75" x2="3346" y1="776.3501" y2="776.3501"/><line style="stroke:#FFFFFF;stroke-width:1.0;" x1="3346" x2="3346" y1="776.3501" y2="792.3501"/><polygon fill="#FFFFFF" points="3342,782.3501,3346,792.3501,3350,782.3501,3346,786.3501" style="stroke:#FFFFFF;stroke-width:1.0;"/><line style="stroke:#FFFFFF;stroke-width:1.0;" x1="1313.75" x2="1313.75" y1="772.3501" y2="776.3501"/><line style="stroke:#FFFFFF;stroke-width:1.0;" x1="1313.75" x2="3519" y1="776.3501" y2="776.3501"/><line style="stroke:#FFFFFF;stroke-width:1.0;" x1="3519" x2="3519" y1="776.3501" y2="792.3501"/><polygon fill="#FFFFFF" points="3515,782.3501,3519,792.3501,3523,782.3501,3519,786.3501" style="stroke:#FFFFFF;stroke-width:1.0;"/><line style="stroke:#FFFFFF;stroke-width:1.0;" x1="3346" x2="3346" y1="826.1489" y2="832.1489"/><line style="stroke:#FFFFFF;stroke-width:1.0;" x1="3346" x2="3447.5" y1="832.1489" y2="832.1489"/><line style="stroke:#FFFFFF;stroke-width:1.0;" x1="3447.5" x2="3447.5" y1="832.1489" y2="846.1489"/><polygon fill="#FFFFFF" points="3443.5,836.1489,3447.5,846.1489,3451.5,836.1489,3447.5,840.1489" style="stroke:#FFFFFF;stroke-width:1.0;"/><line style="stroke:#FFFFFF;stroke-width:1.0;" x1="3447.5" x2="3447.5" y1="852.1489" y2="857.1489"/><line style="stroke:#FFFFFF;stroke-width:1.0;" x1="3447.5" x2="2384" y1="857.1489" y2="857.1489"/><line style="stroke:#FFFFFF;stroke-width:1.0;" x1="2384" x2="2384" y1="857.1489" y2="872.1489"/><polygon fill="#FFFFFF" points="2380,862.1489,2384,872.1489,2388,862.1489,2384,866.1489" style="stroke:#FFFFFF;stroke-width:1.0;"/><line style="stroke:#FFFFFF;stroke-width:1.0;" x1="2384" x2="2384" y1="1047.7466" y2="1070.1522"/><line style="stroke:#FFFFFF;stroke-width:1.0;" x1="2384" x2="1215.25" y1="1070.1522" y2="1070.1522"/><line style="stroke:#FFFFFF;stroke-width:1.0;" x1="1215.25" x2="1215.25" y1="1070.1522" y2="1085.1522"/><polygon fill="#FFFFFF" points="1211.25,1075.1522,1215.25,1085.1522,1219.25,1075.1522,1215.25,1079.1522" style="stroke:#FFFFFF;stroke-width:1.0;"/><text fill="#000000" font-family="Arial" font-size="11" lengthAdjust="spacing" textLength="19" x="2388" y="1063.6522">N&#227;o</text><line style="stroke:#FFFFFF;stroke-width:1.0;" x1="1215.25" x2="1215.25" y1="1118.951" y2="1123.951"/><line style="stroke:#FFFFFF;stroke-width:1.0;" x1="1215.25" x2="2384" y1="1123.951" y2="1123.951"/><line style="stroke:#FFFFFF;stroke-width:1.0;" x1="2384" x2="2384" y1="1123.951" y2="1138.951"/><polygon fill="#FFFFFF" points="2380,1128.951,2384,1138.951,2388,1128.951,2384,1132.951" style="stroke:#FFFFFF;stroke-width:1.0;"/><line style="stroke:#FFFFFF;stroke-width:1.0;" x1="1631" x2="1631" y1="1336.9965" y2="1352.1454"/><line style="stroke:#FFFFFF;stroke-width:1.0;" x1="1631" x2="623" y1="1352.1454" y2="1352.1454"/><line style="stroke:#FFFFFF;stroke-width:1.0;" x1="623" x2="623" y1="1352.1454" y2="1369.6454"/><polygon fill="#FFFFFF" points="619,1359.6454,623,1369.6454,627,1359.6454,623,1363.6454" style="stroke:#FFFFFF;stroke-width:1.0;"/><line style="stroke:#FFFFFF;stroke-width:1.0;" x1="623" x2="623" y1="1403.4442" y2="1418.5931"/><line style="stroke:#FFFFFF;stroke-width:1.0;" x1="623" x2="1631" y1="1418.5931" y2="1418.5931"/><line style="stroke:#FFFFFF;stroke-width:1.0;" x1="1631" x2="1631" y1="1418.5931" y2="1436.0931"/><polygon fill="#FFFFFF" points="1627,1426.0931,1631,1436.0931,1635,1426.0931,1631,1430.0931" style="stroke:#FFFFFF;stroke-width:1.0;"/><line style="stroke:#FFFFFF;stroke-width:1.0;" x1="2004.25" x2="2004.25" y1="1390.7953" y2="1408.2953"/><line style="stroke:#FFFFFF;stroke-width:1.0;" x1="2004.25" x2="835.5" y1="1408.2953" y2="1408.2953"/><line style="stroke:#FFFFFF;stroke-width:1.0;" x1="835.5" x2="835.5" y1="1408.2953" y2="1423.4442"/><polygon fill="#FFFFFF" points="831.5,1413.4442,835.5,1423.4442,839.5,1413.4442,835.5,1417.4442" style="stroke:#FFFFFF;stroke-width:1.0;"/><line style="stroke:#FFFFFF;stroke-width:1.0;" x1="769.5" x2="757.5" y1="1504.243" y2="1504.243"/><line style="stroke:#FFFFFF;stroke-width:1.0;" x1="757.5" x2="757.5" y1="1504.243" y2="1522.243"/><line style="stroke:#FFFFFF;stroke-width:1.0;" x1="757.5" x2="1871.5" y1="1522.243" y2="1522.243"/><line style="stroke:#FFFFFF;stroke-width:1.0;" x1="1871.5" x2="1871.5" y1="1522.243" y2="1536.243"/><polygon fill="#FFFFFF" points="1867.5,1526.243,1871.5,1536.243,1875.5,1526.243,1871.5,1530.243" style="stroke:#FFFFFF;stroke-width:1.0;"/><line style="stroke:#FFFFFF;stroke-width:1.0;" x1="901.5" x2="2137" y1="1504.243" y2="1504.243"/><line style="stroke:#FFFFFF;stroke-width:1.0;" x1="2137" x2="2137" y1="1504.243" y2="1536.243"/><polygon fill="#FFFFFF" points="2133,1526.243,2137,1536.243,2141,1526.243,2137,1530.243" style="stroke:#FFFFFF;stroke-width:1.0;"/><line style="stroke:#FFFFFF;stroke-width:1.0;" x1="1871.5" x2="1871.5" y1="1570.0419" y2="1633.1517"/><line style="stroke:#FFFFFF;stroke-width:1.0;" x1="1871.5" x2="805.5" y1="1633.1517" y2="1633.1517"/><line style="stroke:#FFFFFF;stroke-width:1.0;" x1="805.5" x2="805.5" y1="1633.1517" y2="1651.1517"/><line style="stroke:#FFFFFF;stroke-width:1.0;" x1="805.5" x2="823.5" y1="1651.1517" y2="1651.1517"/><polygon fill="#FFFFFF" points="813.5,1647.1517,823.5,1651.1517,813.5,1655.1517,817.5,1651.1517" style="stroke:#FFFFFF;stroke-width:1.0;"/><line style="stroke:#FFFFFF;stroke-width:1.0;" x1="2137" x2="2137" y1="1627.6718" y2="1651.1517"/><line style="stroke:#FFFFFF;stroke-width:1.0;" x1="2137" x2="847.5" y1="1651.1517" y2="1651.1517"/><polygon fill="#FFFFFF" points="857.5,1647.1517,847.5,1651.1517,857.5,1655.1517,853.5,1651.1517" style="stroke:#FFFFFF;stroke-width:1.0;"/><line style="stroke:#FFFFFF;stroke-width:1.0;" x1="2500.25" x2="2500.25" y1="1324.3475" y2="1341.8475"/><line style="stroke:#FFFFFF;stroke-width:1.0;" x1="2500.25" x2="1331.5" y1="1341.8475" y2="1341.8475"/><line style="stroke:#FFFFFF;stroke-width:1.0;" x1="1331.5" x2="1331.5" y1="1341.8475" y2="1356.9965"/><polygon fill="#FFFFFF" points="1327.5,1346.9965,1331.5,1356.9965,1335.5,1346.9965,1331.5,1350.9965" style="stroke:#FFFFFF;stroke-width:1.0;"/><line style="stroke:#FFFFFF;stroke-width:1.0;" x1="1382.5" x2="2615.5" y1="1435.4442" y2="1435.4442"/><line style="stroke:#FFFFFF;stroke-width:1.0;" x1="2615.5" x2="2615.5" y1="1435.4442" y2="1467.4442"/><polygon fill="#FFFFFF" points="2611.5,1457.4442,2615.5,1467.4442,2619.5,1457.4442,2615.5,1461.4442" style="stroke:#FFFFFF;stroke-width:1.0;"/><line style="stroke:#FFFFFF;stroke-width:1.0;" x1="2615.5" x2="2615.5" y1="1570.0419" y2="1593.5219"/><line style="stroke:#FFFFFF;stroke-width:1.0;" x1="2615.5" x2="1343.5" y1="1593.5219" y2="1593.5219"/><polygon fill="#FFFFFF" points="1353.5,1589.5219,1343.5,1593.5219,1353.5,1597.5219,1349.5,1593.5219" style="stroke:#FFFFFF;stroke-width:1.0;"/><line style="stroke:#FFFFFF;stroke-width:1.0;" x1="2384" x2="2384" y1="1683.1517" y2="1688.1517"/><line style="stroke:#FFFFFF;stroke-width:1.0;" x1="2384" x2="109.5" y1="1688.1517" y2="1688.1517"/><line style="stroke:#FFFFFF;stroke-width:1.0;" x1="109.5" x2="109.5" y1="1688.1517" y2="1703.1517"/><polygon fill="#FFFFFF" points="105.5,1693.1517,109.5,1703.1517,113.5,1693.1517,109.5,1697.1517" style="stroke:#FFFFFF;stroke-width:1.0;"/><line style="stroke:#FFFFFF;stroke-width:1.0;" x1="109.5" x2="109.5" y1="1736.9506" y2="1741.9506"/><line style="stroke:#FFFFFF;stroke-width:1.0;" x1="109.5" x2="1215.25" y1="1741.9506" y2="1741.9506"/><line style="stroke:#FFFFFF;stroke-width:1.0;" x1="1215.25" x2="1215.25" y1="1741.9506" y2="1756.9506"/><polygon fill="#FFFFFF" points="1211.25,1746.9506,1215.25,1756.9506,1219.25,1746.9506,1215.25,1750.9506" style="stroke:#FFFFFF;stroke-width:1.0;"/><text fill="#000000" font-family="Arial" font-size="18" lengthAdjust="spacing" textLength="113" x="208" y="66.2969">Recepcionista</text><text fill="#000000" font-family="Arial" font-size="18" lengthAdjust="spacing" textLength="64" x="991.75" y="66.2969">Sistema</text><text fill="#000000" font-family="Arial" font-size="18" lengthAdjust="spacing" textLength="63" x="2363" y="66.2969">Gar&#231;om</text><text fill="#000000" font-family="Arial" font-size="18" lengthAdjust="spacing" textLength="65" x="3312.5" y="66.2969">Cozinha</text><text fill="#000000" font-family="Arial" font-size="18" lengthAdjust="spacing" textLength="28" x="3504" y="66.2969">Bar</text><rect fill="#DDDDDD" height="110.5918" id="_legend" rx="7.5" ry="7.5" style="stroke:#000000;stroke-width:1.0;" width="205" x="3391" y="1952.347"/><text fill="#000000" font-family="Arial" font-size="14" font-weight="bold" lengthAdjust="spacing" textLength="71" x="3400" y="1972.4789">Ator/Setor</text><text fill="#000000" font-family="Arial" font-size="14" font-weight="bold" lengthAdjust="spacing" textLength="80" x="3497" y="1972.4789">Cor da Raia</text><text fill="#000000" filter="url(#b1rvgv0x162vkc0)" font-family="Arial" font-size="14" lengthAdjust="spacing" textLength="89" x="3400" y="1988.5775">Recepcionista</text><text fill="#000000" font-family="Arial" font-size="14" lengthAdjust="spacing" textLength="67" x="3497" y="1988.5775">Lil&#225;s Claro</text><text fill="#000000" filter="url(#b1rvgv0x162vkc1)" font-family="Arial" font-size="14" lengthAdjust="spacing" textLength="50" x="3400" y="2004.6761">Sistema</text><text fill="#000000" font-family="Arial" font-size="14" lengthAdjust="spacing" textLength="64" x="3497" y="2004.6761">Azul Claro</text><text fill="#000000" filter="url(#b1rvgv0x162vkc2)" font-family="Arial" font-size="14" lengthAdjust="spacing" textLength="50" x="3400" y="2020.7748">Gar&#231;om</text><text fill="#000000" font-family="Arial" font-size="14" lengthAdjust="spacing" textLength="76" x="3497" y="2020.7748">Verde Claro</text><text fill="#000000" filter="url(#b1rvgv0x162vkc3)" font-family="Arial" font-size="14" lengthAdjust="spacing" textLength="51" x="3400" y="2036.8734">Cozinha</text><text fill="#000000" font-family="Arial" font-size="14" lengthAdjust="spacing" textLength="90" x="3497" y="2036.8734">Amarelo Claro</text><text fill="#000000" filter="url(#b1rvgv0x162vkc4)" font-family="Arial" font-size="14" lengthAdjust="spacing" textLength="22" x="3400" y="2052.972">Bar</text><text fill="#000000" font-family="Arial" font-size="14" lengthAdjust="spacing" textLength="66" x="3497" y="2052.972">Teal Claro</text><line style="stroke:#000000;stroke-width:1.0;" x1="3396" x2="3591" y1="1959.347" y2="1959.347"/><line style="stroke:#000000;stroke-width:1.0;" x1="3396" x2="3591" y1="1975.4457" y2="1975.4457"/><line style="stroke:#000000;stroke-width:1.0;" x1="3396" x2="3591" y1="1991.5443" y2="1991.5443"/><line style="stroke:#000000;stroke-width:1.0;" x1="3396" x2="3591" y1="2007.6429" y2="2007.6429"/><line style="stroke:#000000;stroke-width:1.0;" x1="3396" x2="3591" y1="2023.7416" y2="2023.7416"/><line style="stroke:#000000;stroke-width:1.0;" x1="3396" x2="3591" y1="2039.8402" y2="2039.8402"/><line style="stroke:#000000;stroke-width:1.0;" x1="3396" x2="3591" y1="2055.9388" y2="2055.9388"/><line style="stroke:#000000;stroke-width:1.0;" x1="3396" x2="3396" y1="1959.347" y2="2055.9388"/><line style="stroke:#000000;stroke-width:1.0;" x1="3493" x2="3493" y1="1959.347" y2="2055.9388"/><line style="stroke:#000000;stroke-width:1.0;" x1="3591" x2="3591" y1="1959.347" y2="2055.9388"/><!--SRC=[jLVDRjj64BxpAQR9eVAXS9hMZYkrBYZPIWmajYi5HT1BiI9Nqi9BBhiabTHLtwL63q4EFHLz0hvOlrd-YBGaDmLQoHPipNmpipFVp2mpbMb9Ovs_CpGoKQ9bPYYKv6So3bKaO_mh8D8AVqeAJ4HZOoEHijArM0YduddfZOeJOKL4ltX4Pt8kSfsDJPnTGeDyguJ6ztwGgPNAVXuQ6qexCjfOUlobps-YmqCQgVXMa4o3t1fYSpI39Zl3hs1iA4APjYs9u6PXJHw7bRMnUx6neHLnK9anD8UAsM_dJ8d8nE6km1wCI-8dK6dnrqvhMy6Ty7jZCSeLyXjeKPkjeknQdRvLaHQnx0Htx5ujKyM7K6qdpGebN6JMchSLzEanlpVGcOmwPqjbvZ2N9fCxytl-XC5-9ApKni5RHuXD2zsE-CYzDcxlvR74EI1A8nCwBhtap32ke4mJKRmtj3HMtO9PGXCaLf99AIx-P9yJ4TymzDaUw4hQJ0Lje6K4zUBYZvLKwO7tg-TzolHLiIhU5x-NZ0cCbUrqVXAoWgJ9-UZyUdHnTNanVUt_EBfwUJMXn_uNeo_FdpGwKyZENpNIhuxye-5n8ttkJqPNhshXU7psxCa6EhhwuUBoHGETVtuoEtdQI8V-f9OCZqx6lkzvwnq1hISoa4cWJApIJAmzVDZCw_EtCsbHEDVO0m_fbsJLOfaXZzzBg-P8b0KNA35fcYj22gHT2KXDJiM76WcDg95XPd0T9KBfd7izXNCPmRsQKwyzJ2hajmUKBMLClQcA3k2Ylua0dMeu-RKg751QcXkmffzPDSkLfKYcZL88cTG8ldU98jwpo8gmgDB4L7M_PvE3V57SxL2y7-UMVwrMLhADhdUYZwcDitSHptd0Mb9nwLdDb7RpYWTnKo-dEyqNE9LbVakUSZdElu0j2pZAejaizrOfBq5fPXAE3zRdNldvKSJfZp3HyblLS8QAtzoP1y2tURn-BYoQBGB4JxWUw460X0sBkqIP0RxcNhUKo52vshQEjPSuO6nziXBNgLd_DHevZLIc6d68AQQN84yvQ09pg-AbE9m9E_2GuHlaODtfiFMeLE4wzAk_2GTmSA7BPPYMOCBcKp6RQDfmFHJMGOSSOWMRoHbA1n1tXlEwDrVdF98MhRGqwOKjAR8kXsCK9qtBDKOYL5mdeRgvB77qTgcmufkkGsXOBOuMGYyCHSBH6jYIr9-T4hFseL8ybro6W6Tma-Q7QD0ShOIqQTolmy82CdefoP6VWqlgomKCSqEEQq5pwsYQyGobaigMVLvFjfNWhOCk22ifqt_VaHokuLVjO0kz-tpbmBXq5IdkBBPmParWTioAaT11hhavomt4EN6wWqr7yjnmKn9pcgU7C-86tQQPekBkfrp5BXr1gUTcOPrC5MCAoaEHMFDE8MijdGSoS8r8S0GN4xf9b0kGftGBpw4r5I3sW6cxuwnxSmL7BJv4pW37l645zP22r6YGEeFjWvtZz07ppGI5xPd6wGYPQXsf7fwL1ukvcV7TQmVpM14DyJ4atIhWzSMRdSNxReARTYWFHqkn0filtln3MVn5ZjbPTizSmN5rCJ4rjdBMoCETrAk45Yi23RAvshSsod-Pv3gu_pdHlQkDoOCkYHzovcuxMiwpFYvxRe2LwOMoh6PhsSaz-QvFAvC7IsaF_jMwtCmJhJ2Fwgg9PcVkcwv-bcFRtFBbAnDPdjQOSeyzUiatZ4U3UWfN2z_rQVNqXh9kdjwWU5xkHLwwD5Sftt-vmqI2iXHtAudhSBVTF7T7yBHSyDggBuNhR_1KQEpX54ui_pSoV3l3fLi9ObQilvxXQQ6_8pcdrCaEhUcbqiLTYdhpSqCBt4dAALLP0S2_pVMsUfkWfrGn5DfOb2ZvbdfdtuDjrP9VDyyoMuXclPyIx_KrlPPY4mUdfyoIzpS0]--></g></svg>